<?xml version="1.0" encoding="UTF-8" standalone="no"?>
<!-- Created with Inkscape (http://www.inkscape.org/) -->

<svg
   width="144.88985mm"
   height="51.029308mm"
   viewBox="0 0 144.88985 51.029308"
   version="1.1"
   id="svg3527"
   xmlns="http://www.w3.org/2000/svg"
   xmlns:svg="http://www.w3.org/2000/svg">
  <defs
     id="defs3524" />
  <g
     id="layer1"
     transform="translate(34.028832,151.50214)">
    <path
       d="m 59.906116,139.72936 h 16.827853 c 2.383014,0 4.315178,1.93188 4.315178,4.31518 v 20.48729 H 55.590938 v -20.48729 c 0,-2.3833 1.932164,-4.31518 4.315178,-4.31518"
       style="fill:#ffffff;fill-opacity:1;fill-rule:nonzero;stroke:none;stroke-width:0.0352778"
       id="path2394" />
    <path
       d="m 59.906116,139.72936 v 0.26459 h 16.827853 c 1.119364,0 2.130426,0.45296 2.864203,1.18649 0.733425,0.73368 1.186392,1.74474 1.186392,2.8641 v 20.22271 H 55.855521 v -20.22271 c 0,-1.11936 0.452967,-2.13042 1.186392,-2.8641 0.733777,-0.73353 1.744839,-1.18649 2.864203,-1.18649 v -0.26459 -0.26451 c -2.529417,0 -4.579762,2.05031 -4.579762,4.57969 v 20.75187 h 25.987377 v -20.75187 c 0,-2.52938 -2.050345,-4.57969 -4.579762,-4.57969 H 59.906116 v 0.26451"
       style="fill:#000000;fill-opacity:1;fill-rule:nonzero;stroke:none;stroke-width:0.0352778"
       id="path2396" />
    <path
       d="m 34.423211,139.72936 h 16.827501 c 2.383367,0 4.315531,1.93188 4.315531,4.31518 v 20.48729 H 30.10768 v -20.48729 c 0,-2.3833 1.932164,-4.31518 4.315531,-4.31518"
       style="fill:#ffffff;fill-opacity:1;fill-rule:nonzero;stroke:none;stroke-width:0.0352778"
       id="path2398" />
    <path
       d="m 34.423211,139.72936 v 0.26459 h 16.827501 c 1.119364,0 2.130425,0.45296 2.864556,1.18649 0.733425,0.73368 1.186039,1.74474 1.186392,2.8641 v 20.22271 H 30.372264 v -20.22271 c 3.52e-4,-1.11936 0.452966,-2.13042 1.186391,-2.8641 0.733778,-0.73353 1.744839,-1.18649 2.864556,-1.18649 v -0.26459 -0.26451 c -2.529769,0 -4.579761,2.05031 -4.580114,4.57969 v 20.75187 h 25.987729 v -20.75187 c -3.52e-4,-2.52938 -2.050344,-4.57969 -4.580114,-4.57969 H 34.423211 v 0.26451"
       style="fill:#000000;fill-opacity:1;fill-rule:nonzero;stroke:none;stroke-width:0.0352778"
       id="path2400" />
    <path
       d="m 59.906116,157.58556 h 16.827853 c 2.383014,0 4.315178,1.93231 4.315178,4.31518 v 2.63109 H 55.590938 v -2.63109 c 0,-2.38287 1.932164,-4.31518 4.315178,-4.31518"
       style="fill:#ffffff;fill-opacity:1;fill-rule:nonzero;stroke:none;stroke-width:0.0352778"
       id="path2402" />
    <path
       d="m 59.906116,157.58556 v 0.26459 h 16.827853 c 1.119364,0 2.130426,0.45296 2.864203,1.18649 0.733425,0.73368 1.186392,1.74488 1.186392,2.8641 v 2.36651 H 55.855521 v -2.36651 c 0,-1.11922 0.452967,-2.13042 1.186392,-2.8641 0.733777,-0.73353 1.744839,-1.18649 2.864203,-1.18649 v -0.26459 -0.26458 c -2.529417,0 -4.579762,2.05038 -4.579762,4.57976 v 2.89567 h 25.987377 v -2.89567 c 0,-2.52938 -2.050345,-4.57976 -4.579762,-4.57976 H 59.906116 v 0.26458"
       style="fill:#000000;fill-opacity:1;fill-rule:nonzero;stroke:none;stroke-width:0.0352778"
       id="path2404" />
    <path
       d="m 34.423211,157.58556 h 16.827501 c 2.383367,0 4.315531,1.93231 4.315531,4.31518 v 2.63109 H 30.10768 v -2.63109 c 0,-2.38287 1.932164,-4.31518 4.315531,-4.31518"
       style="fill:#ffffff;fill-opacity:1;fill-rule:nonzero;stroke:none;stroke-width:0.0352778"
       id="path2406" />
    <path
       d="m 34.423211,157.58556 v 0.26459 h 16.827501 c 1.119364,0 2.130425,0.45296 2.864556,1.18649 0.733425,0.73368 1.186039,1.74488 1.186392,2.8641 v 2.36651 H 30.372264 v -2.36651 c 3.52e-4,-1.11922 0.452966,-2.13042 1.186391,-2.8641 0.733778,-0.73353 1.744839,-1.18649 2.864556,-1.18649 v -0.26459 -0.26458 c -2.529769,0 -4.579761,2.05038 -4.580114,4.57976 v 2.89567 h 25.987729 v -2.89567 c -3.52e-4,-2.52938 -2.050344,-4.57976 -4.580114,-4.57976 H 34.423211 v 0.26458"
       style="fill:#000000;fill-opacity:1;fill-rule:nonzero;stroke:none;stroke-width:0.0352778"
       id="path2408" />
    <path
       d="M 5.3049316,166.6189 H 81.049147 v -2.08707 H 5.3049316 V 114.27122 H 3.2178981 v 52.34768 h 2.0870335"
       style="fill:#ffffff;fill-opacity:1;fill-rule:nonzero;stroke:none;stroke-width:0.0352778"
       id="path2410" />
    <path
       d="m 5.3049316,166.6189 v 0.26458 H 81.313731 v -2.61623 H 5.5695149 V 114.00664 H 2.9533147 v 52.87684 h 2.3516169 v -0.26458 -0.26459 H 3.4824814 v -51.8185 h 1.5578668 v 50.2606 H 80.784564 v 1.5579 H 5.3049316 v 0.26459"
       style="fill:#000000;fill-opacity:1;fill-rule:nonzero;stroke:none;stroke-width:0.0352778"
       id="path2412" />
    <path
       d="m 30.10768,144.01353 v 20.54338 H 5.3049316 V 139.75416 H 25.848241 c 2.352323,0 4.259439,1.90666 4.259439,4.25937"
       style="fill:#ffffff;fill-opacity:1;fill-rule:nonzero;stroke:none;stroke-width:0.0352778"
       id="path2414" />
    <path
       d="m 30.10768,144.01353 h -0.264583 v 20.2788 H 5.5695149 V 140.01875 H 25.848241 c 1.103842,0 2.101145,0.44661 2.824692,1.17009 0.723547,0.72362 1.170164,1.72088 1.170164,2.82469 h 0.264583 0.264584 c 0,-2.49865 -2.025298,-4.52363 -4.524023,-4.52399 H 5.0403482 v 25.33195 H 30.372264 V 144.01353 H 30.10768"
       style="fill:#000000;fill-opacity:1;fill-rule:nonzero;stroke:none;stroke-width:0.0352778"
       id="path2416" />
    <path
       d="m 30.10768,118.5864 v 16.8275 c 0,2.38337 -1.931811,4.31546 -4.315178,4.31546 H 5.3049316 V 114.27122 H 25.792502 c 2.383367,0 4.315178,1.93181 4.315178,4.31518"
       style="fill:#ffffff;fill-opacity:1;fill-rule:nonzero;stroke:none;stroke-width:0.0352778"
       id="path2418" />
    <path
       d="m 30.10768,118.5864 h -0.264583 v 16.8275 c 0,1.11972 -0.452967,2.13043 -1.186392,2.86456 -0.733778,0.73342 -1.744839,1.18604 -2.864203,1.18639 H 5.5695149 V 114.53581 H 25.792502 c 1.119364,0 2.130425,0.45296 2.864203,1.18639 0.733425,0.73378 1.186392,1.74484 1.186392,2.8642 h 0.264583 0.264584 c 0,-2.52942 -2.050345,-4.57976 -4.579762,-4.57976 H 5.0403482 v 25.98731 H 25.792502 c 2.529417,-2.9e-4 4.579762,-2.05028 4.579762,-4.58005 V 118.5864 H 30.10768"
       style="fill:#000000;fill-opacity:1;fill-rule:nonzero;stroke:none;stroke-width:0.0352778"
       id="path2420" />
    <path
       d="m 12.251479,118.5864 v 16.8275 c 0,2.38337 -1.932164,4.31546 -4.3151778,4.31546 H 5.3049316 v -25.45814 h 2.6313696 c 2.3830138,0 4.3151778,1.93181 4.3151778,4.31518"
       style="fill:#ffffff;fill-opacity:1;fill-rule:nonzero;stroke:none;stroke-width:0.0352778"
       id="path2422" />
    <path
       d="m 12.251479,118.5864 h -0.264583 v 16.8275 c -3.53e-4,1.11972 -0.452967,2.13043 -1.186392,2.86456 -0.733778,0.73342 -1.7448389,1.18604 -2.8642028,1.18639 H 5.5695149 v -24.92904 h 2.3667863 c 1.1193639,0 2.1304248,0.45296 2.8642028,1.18639 0.733425,0.73378 1.186039,1.74484 1.186392,2.8642 h 0.264583 0.264584 c -3.53e-4,-2.52942 -2.050345,-4.57976 -4.5797618,-4.57976 h -2.895953 v 25.98731 h 2.895953 c 2.5294168,-2.9e-4 4.5794088,-2.05028 4.5797618,-4.58005 v -16.8275 h -0.264584"
       style="fill:#000000;fill-opacity:1;fill-rule:nonzero;stroke:none;stroke-width:0.0352778"
       id="path2424" />
    <path
       d="m 30.10768,164.53183 v -2.63109 c 0,-2.38287 -1.932164,-4.31518 -4.31553,-4.31518 H 12.251479 v -13.51594 c 0,-2.38329 -1.932164,-4.31546 -4.3151778,-4.31546 H 5.3049316 v 24.77767 H 30.10768"
       style="fill:#ffffff;fill-opacity:1;fill-rule:nonzero;stroke:none;stroke-width:0.0352778"
       id="path2426" />
    <path
       d="m 30.10768,164.53183 h 0.264584 v -2.63109 c 0,-2.52938 -2.050345,-4.57976 -4.580114,-4.57976 H 12.516063 v -13.25136 c -3.53e-4,-2.5298 -2.050345,-4.57972 -4.5797618,-4.58008 h -2.895953 v 25.30687 H 30.372264 v -0.26458 H 30.10768 v -0.26458 H 5.5695149 v -24.2485 h 2.3667863 c 1.1193639,0 2.1304248,0.45296 2.8642028,1.18635 0.733425,0.73382 1.186039,1.74488 1.186392,2.86452 v 13.78053 H 25.79215 c 1.119363,0 2.130425,0.45296 2.864555,1.18649 0.733425,0.73368 1.186392,1.74488 1.186392,2.8641 v 2.63109 h 0.264583 v -0.26458 0.26458"
       style="fill:#000000;fill-opacity:1;fill-rule:nonzero;stroke:none;stroke-width:0.0352778"
       id="path2428" />
    <path
       d="M 6.1384486,-100.47283 H -25.773831 c -4.519084,0 -8.184445,-3.66536 -8.184445,-8.18444 l -0.02117,-38.85495 h 48.302337 v 38.85495 c 0,4.51908 -3.665362,8.18444 -8.1844454,8.18444"
       style="fill:#f8dba7;fill-opacity:1;fill-rule:nonzero;stroke:none;stroke-width:0.0352778"
       id="path1458" />
    <path
       d="M 54.419618,-100.50811 H 22.507339 c -4.519084,0 -8.184445,-3.66183 -8.184445,-8.18091 v -38.85495 h 48.281169 v 38.85495 c 0,4.51908 -3.665361,8.18091 -8.184445,8.18091"
       style="fill:#f8dba7;fill-opacity:1;fill-rule:nonzero;stroke:none;stroke-width:0.0352778"
       id="path1460" />
    <path
       d="M 102.67609,-100.50811 H 70.763814 c -4.519084,0 -8.184445,-3.66183 -8.184445,-8.18091 v -38.85495 h 48.277641 l 0.004,38.85495 c 0,4.51908 -3.66184,8.18091 -8.18445,8.18091"
       style="fill:#f8dba7;fill-opacity:1;fill-rule:nonzero;stroke:none;stroke-width:0.0352778"
       id="path1462" />
    <path
       d="m 19.547533,-142.31933 h 37.835419 v 33.63031 c 0,1.62983 -1.329972,2.9598 -2.963334,2.9598 H 22.507339 c -1.633362,0 -2.959806,-1.32997 -2.959806,-2.9598 z m 2.959806,41.81122 h 31.912279 c 4.519084,0 8.184445,-3.66183 8.184445,-8.18091 v -38.85495 H 14.322894 v 38.85495 c 0,4.51908 3.665361,8.18091 8.184445,8.18091"
       style="fill:#d7b380;fill-opacity:1;fill-rule:nonzero;stroke:none;stroke-width:0.0352778"
       id="path1464" />
    <path
       d="m 67.804008,-142.31933 h 37.835422 v 33.63031 c 0,1.62983 -1.32998,2.9598 -2.96334,2.9598 H 70.763814 c -1.633361,0 -2.959806,-1.32997 -2.959806,-2.9598 z m 2.959806,41.81122 h 31.912276 c 4.52261,0 8.18445,-3.66183 8.18445,-8.18091 v -38.85495 H 62.579369 v 38.85495 c 0,4.51908 3.665361,8.18091 8.184445,8.18091"
       style="fill:#d7b380;fill-opacity:1;fill-rule:nonzero;stroke:none;stroke-width:0.0352778"
       id="path1466" />
    <path
       d="M -28.733637,-142.28758 H 9.1017821 v 33.63031 c 0,1.62983 -1.3299723,2.9598 -2.9633335,2.9598 H -25.773831 c -1.633361,0 -2.959806,-1.32997 -2.959806,-2.9598 z m 2.959806,41.81475 H 6.1384486 c 4.5190834,0 8.1844454,-3.66536 8.1844454,-8.18444 v -38.85495 h -48.28117 v 38.85495 c 0,4.51908 3.665361,8.18444 8.184445,8.18444"
       style="fill:#d7b380;fill-opacity:1;fill-rule:nonzero;stroke:none;stroke-width:0.0352778"
       id="path1468" />
    <path
       d="M 110.85701,-147.54397 H -34.028832 v -3.95817 H 110.85701 v 3.95817"
       style="fill:#f8dba7;fill-opacity:1;fill-rule:nonzero;stroke:none;stroke-width:0.0352778"
       id="path1470" />
    <path
       d="M 6.1384486,-134.33597 H -25.773831 c -4.519084,0 -8.184445,-3.66536 -8.184445,-8.18445 v -4.9918 h 48.28117 v 4.9918 c 0,4.51909 -3.665362,8.18445 -8.1844454,8.18445"
       style="fill:#f5efe1;fill-opacity:1;fill-rule:nonzero;stroke:none;stroke-width:0.0352778"
       id="path1472" />
    <path
       d="M 102.67609,-134.37125 H 70.763814 c -4.519084,0 -8.184445,-3.66183 -8.184445,-8.18444 v -4.98828 h 48.277641 l 0.004,4.98828 c 0,4.52261 -3.66536,8.18444 -8.18445,8.18444"
       style="fill:#f5efe1;fill-opacity:1;fill-rule:nonzero;stroke:none;stroke-width:0.0352778"
       id="path1474" />
    <path
       d="m 54.394924,-134.37125 h -31.91228 c -4.519084,0 -8.180917,-3.66183 -8.180917,-8.18444 v -4.98828 h 48.277642 v 4.98828 c 0,4.52261 -3.661834,8.18444 -8.184445,8.18444"
       style="fill:#f5efe1;fill-opacity:1;fill-rule:nonzero;stroke:none;stroke-width:0.0352778"
       id="path1476" />
    <path
       d="m 81.735203,-129.92625 c 0,0 2.656417,2.97392 7.496529,4.36034 4.843639,1.38994 17.709448,5.7785 18.393838,5.60564 1.40758,-0.34925 -0.25753,-7.87753 0.28927,-10.32228 0.54681,-2.44475 2.00731,-7.42598 1.73567,-7.58473 -0.27517,-0.15875 -25.904473,5.64798 -25.904473,5.64798 l -2.010834,2.29305"
       style="fill:#d7b380;fill-opacity:1;fill-rule:nonzero;stroke:none;stroke-width:0.0352778"
       id="path1478" />
    <path
       d="m 105.6994,-122.72605 c 1.09714,-0.94898 4.78367,-14.57325 4.34622,-15.52575 -0.45155,-0.98425 -22.489583,-7.63764 -23.382111,-7.18962 -0.892528,0.44803 -4.861278,13.05278 -5.404556,14.80609 -0.546805,1.7533 23.509117,8.71714 24.440447,7.90928"
       style="fill:#bba897;fill-opacity:1;fill-rule:nonzero;stroke:none;stroke-width:0.0352778"
       id="path1480" />
    <path
       d="m 110.02093,-137.09116 c 0.10583,-0.52212 -14.661448,11.25008 -28.793727,6.58283 0.01764,1.67922 23.526747,8.57603 24.461617,7.76817 1.09361,-0.94545 4.01461,-12.77409 4.33211,-14.351"
       style="fill:#b49a80;fill-opacity:1;fill-rule:nonzero;stroke:none;stroke-width:0.0352778"
       id="path1482" />
    <path
       d="m -27.336637,-125.5765 c 0,0 3.732389,1.40053 8.664223,0.37747 4.931834,-1.02305 18.36561221,-3.12208 18.88772336,-3.58775 1.08655564,-0.96661 -3.88761136,-6.858 -4.54025026,-9.27805 -0.652639,-2.41653 -1.6756946,-7.50711 -1.9931946,-7.52122 -0.3139722,-0.0141 -20.3058905,17.04622 -20.3058905,17.04622 l -0.712611,2.96333"
       style="fill:#d7b380;fill-opacity:1;fill-rule:nonzero;stroke:none;stroke-width:0.0352778"
       id="path1484" />
    <path
       d="m -2.7727186,-130.34253 c 0.5291667,-1.34761 -2.5435279,-15.12711 -3.369028,-15.76564 -0.8572501,-0.66322 -23.4632514,3.69359 -24.0453344,4.50498 -0.582084,0.81139 1.763889,13.8183 2.0955,15.621 0.335139,1.80622 24.8673068,-3.21381 25.3188624,-4.36034"
       style="fill:#bba897;fill-opacity:1;fill-rule:nonzero;stroke:none;stroke-width:0.0352778"
       id="path1486" />
    <path
       d="m -5.6231632,-145.071 c -0.1516945,-0.51153 -7.7540558,16.77811 -22.4366678,19.21581 0.797278,1.47814 24.8179179,-3.34434 25.2694735,-4.49439 0.5291667,-1.34761 -2.3847779,-13.17625 -2.8328057,-14.72142"
       style="fill:#b49a80;fill-opacity:1;fill-rule:nonzero;stroke:none;stroke-width:0.0352778"
       id="path1488" />
    <path
       d="m 25.375422,-118.6938 c 0,0.81491 0.659695,1.47461 1.474611,1.47461 0.811389,0 1.471084,-0.6597 1.471084,-1.47461 0,-0.81139 -0.659695,-1.47109 -1.471084,-1.47109 -0.814916,0 -1.474611,0.6597 -1.474611,1.47109"
       style="fill:#f5efe1;fill-opacity:1;fill-rule:nonzero;stroke:none;stroke-width:0.0352778"
       id="path1490" />
    <path
       d="m 48.771646,-118.6938 c 0,0.81491 0.659694,1.47461 1.474611,1.47461 0.814917,0 1.471083,-0.6597 1.471083,-1.47461 0,-0.81139 -0.656166,-1.47109 -1.471083,-1.47109 -0.814917,0 -1.474611,0.6597 -1.474611,1.47109"
       style="fill:#f5efe1;fill-opacity:1;fill-rule:nonzero;stroke:none;stroke-width:0.0352778"
       id="path1492" />
    <path
       d="m 73.547231,-118.6938 c 0,0.81491 0.659694,1.47461 1.474611,1.47461 0.814917,0 1.474611,-0.6597 1.474611,-1.47461 0,-0.81139 -0.659694,-1.47109 -1.474611,-1.47109 -0.814917,0 -1.474611,0.6597 -1.474611,1.47109"
       style="fill:#f5efe1;fill-opacity:1;fill-rule:nonzero;stroke:none;stroke-width:0.0352778"
       id="path1494" />
    <path
       d="m 96.946982,-118.6938 c 0,0.81491 0.659695,1.47461 1.471084,1.47461 0.814916,0 1.474611,-0.6597 1.474611,-1.47461 0,-0.81139 -0.659695,-1.47109 -1.474611,-1.47109 -0.811389,0 -1.471084,0.6597 -1.471084,1.47109"
       style="fill:#f5efe1;fill-opacity:1;fill-rule:nonzero;stroke:none;stroke-width:0.0352778"
       id="path1496" />
    <path
       d="m -23.000998,-118.6938 c 0,0.81491 0.659695,1.47461 1.474612,1.47461 0.811388,0 1.471083,-0.6597 1.471083,-1.47461 0,-0.81139 -0.659695,-1.47109 -1.471083,-1.47109 -0.814917,0 -1.474612,0.6597 -1.474612,1.47109"
       style="fill:#f5efe1;fill-opacity:1;fill-rule:nonzero;stroke:none;stroke-width:0.0352778"
       id="path1498" />
    <path
       d="m 0.39522603,-118.6938 c 0,0.81491 0.65969447,1.47461 1.47461117,1.47461 0.8149168,0 1.4746112,-0.6597 1.4746112,-1.47461 0,-0.81139 -0.6596944,-1.47109 -1.4746112,-1.47109 -0.8149167,0 -1.47461117,0.6597 -1.47461117,1.47109"
       style="fill:#f5efe1;fill-opacity:1;fill-rule:nonzero;stroke:none;stroke-width:0.0352778"
       id="path1500" />
  </g>
</svg>
