<?xml version="1.0" encoding="UTF-8" standalone="no"?>
<!-- Created with Inkscape (http://www.inkscape.org/) -->

<svg
   width="73.85688mm"
   height="73.758888mm"
   viewBox="0 0 73.85688 73.758888"
   version="1.1"
   id="svg3527"
   xmlns="http://www.w3.org/2000/svg"
   xmlns:svg="http://www.w3.org/2000/svg">
  <defs
     id="defs3524" />
  <g
     id="layer1"
     transform="translate(-26.271834,-126.69775)">
    <path
       d="m 64.475648,159.87076 c -0.03175,0 -0.0635,-0.0212 -0.08819,-0.0705 0.04586,0.0176 0.09172,0.0388 0.137583,0.06 -0.01764,0.007 -0.03175,0.0106 -0.04939,0.0106"
       style="fill:#717171;fill-opacity:1;fill-rule:nonzero;stroke:none;stroke-width:0.0352778"
       id="path1626" />
    <path
       d="m 79.373455,195.18735 c 0.663222,0.0388 1.404055,0.25753 2.081389,0.50447 -0.451556,-3.13619 -1.905,-7.03791 -3.450167,-9.15105 -2.12725,-2.921 -2.846917,-8.08214 -3.838223,-12.42131 -1.037166,0.0882 -2.021416,0.29281 -3.107972,0.762 0.747889,-0.88547 1.696861,-1.69333 2.702278,-2.40947 -0.306917,-1.143 -0.652639,-2.19428 -1.075972,-3.07622 -2.123723,-4.43442 -4.480278,-3.54189 -7.990417,-1.55575 -5.609168,3.175 -2.864556,5.78555 1.439333,18.3515 1.312333,3.83469 3.086806,6.75922 5.034139,8.94997 1.005417,-0.87842 2.084917,-1.66864 2.95275,-2.69875 -0.53975,1.36525 -0.980722,2.7693 -1.559278,4.12044 2.229556,2.04611 4.586112,3.24203 6.688668,3.80295 2.014361,0.53975 2.561166,-1.40053 2.282472,-4.06753 -0.673806,-0.41628 -1.354667,-0.79022 -2.159,-1.11125"
       style="fill:#b4a466;fill-opacity:1;fill-rule:nonzero;stroke:none;stroke-width:0.0352778"
       id="path1628" />
    <path
       d="m 60.838509,170.41882 c -1.5875,-0.90311 -1.820333,-2.57175 -7.859889,-0.77964 -1.27,0.37747 -2.843389,1.42522 -4.543778,2.87161 1.195916,1.12536 2.197805,2.36714 3.739444,3.29848 -1.633361,-0.78317 -3.358444,-1.4217 -5.072944,-2.10962 -4.328584,4.0252 -9.144001,10.05417 -11.789834,14.02998 0.705555,0.0882 1.411111,0.17639 2.113139,0.26458 -0.800806,1.19945 -1.834445,1.09714 -2.896306,0.95603 -0.663222,1.0795 -1.090084,1.91911 -1.199445,2.39889 -0.677333,2.97391 2.056695,6.37822 9.902473,3.17853 1.305278,-0.5327 2.945695,-1.397 4.723695,-2.49414 -0.525639,-1.98614 -0.786695,-3.85939 -0.299861,-5.99723 0.723194,1.64042 1.845028,2.97392 3.136194,4.1275 4.614334,-3.23497 9.465029,-7.57413 11.652251,-11.54289 -0.620889,-0.56797 -1.319389,-1.07597 -1.735667,-2.01083 0.624417,0.53975 1.541639,0.32808 2.437695,0.50447 1.005417,-2.66347 0.557389,-5.05883 -2.307167,-6.69572"
       style="fill:#b4a466;fill-opacity:1;fill-rule:nonzero;stroke:none;stroke-width:0.0352778"
       id="path1630" />
    <path
       d="m 50.791397,190.16379 c 4.614334,-3.23497 9.465029,-7.57413 11.652251,-11.54289 -0.620889,-0.56797 -1.319389,-1.07597 -1.735667,-2.01083 0.624417,0.53975 1.541639,0.32808 2.437695,0.50447 1.005417,-2.66347 0.557389,-5.05883 -2.307167,-6.69572 l -0.01058,-0.004 c -1.732139,2.57881 -6.434667,9.21103 -10.061223,10.77736 -4.042834,1.74626 -13.811251,11.68401 -15.875001,13.94884 1.552222,0.92428 4.250972,1.05128 8.339667,-0.61383 1.305278,-0.5327 2.945695,-1.397 4.723695,-2.49414 -0.525639,-1.98614 -0.786695,-3.85939 -0.299861,-5.99723 0.723194,1.64042 1.845028,2.97392 3.136194,4.1275"
       style="fill:#eae28d;fill-opacity:1;fill-rule:nonzero;stroke:none;stroke-width:0.0352778"
       id="path1632" />
    <path
       d="m 71.22076,165.9844 c -1.255889,-1.09008 -2.353028,-2.04258 -5.358695,-3.20322 3.827639,-1.12889 5.503334,-0.52211 6.163028,-0.28222 l 0.07056,0.0247 0.211666,-0.59619 -0.06703,-0.0247 c -0.709084,-0.25752 -2.501195,-0.90663 -6.469945,0.24695 l 4.917722,-6.23006 -0.497416,-0.39511 -4.81189,6.096 c 0.15875,-2.69522 -0.956027,-6.37116 -1.008944,-6.54755 l -0.606778,0.18344 c 0.01411,0.0494 1.351139,4.45911 0.910167,7.00617 -0.73025,-0.4692 -2.561167,-1.79564 -5.422195,-4.82953 l -0.462139,0.43744 c 2.677584,2.83987 4.469695,4.20864 5.341056,4.79425 -4.3815,1.32998 -8.678334,1.24531 -8.724195,1.24531 l -0.01411,0.635 c 0.04586,0 4.483806,0.0882 8.992306,-1.29469 -0.585611,1.50636 -1.964972,3.82764 -3.961695,6.64633 -0.151694,0.21519 -0.186972,0.26811 -0.15875,0.40569 l 0.225778,0.0494 0.204611,0.23284 c 0.01058,-0.0176 0.194028,-0.24342 0.246945,-0.32103 1.693333,-2.39536 2.956278,-4.44853 3.679472,-5.969 0.204611,1.9438 0.871361,3.46428 0.906639,3.54189 l 0.578556,-0.25753 c -0.01058,-0.0212 -0.903111,-2.07081 -0.913695,-4.37092 3.242028,1.19592 4.342695,2.15548 5.612695,3.25614 0.79375,0.68792 1.689806,1.47109 3.210278,2.39536 l 0.328083,-0.53975 c -1.471083,-0.89958 -2.310694,-1.62983 -3.122083,-2.33539"
       style="fill:#b4a466;fill-opacity:1;fill-rule:nonzero;stroke:none;stroke-width:0.0352778"
       id="path1634" />
    <path
       d="m 38.105508,183.84202 5.640917,2.69875 4.060472,-3.47839 c 0,0 -4.34975,-3.01978 -5.820833,-3.99345 -1.379362,1.59103 -2.702278,3.22439 -3.880556,4.77309"
       style="fill:#eae28d;fill-opacity:1;fill-rule:nonzero;stroke:none;stroke-width:0.0352778"
       id="path1636" />
    <path
       d="m 57.801092,146.5781 c -1.354666,0.69497 -2.617611,1.57339 -3.704167,2.88925 0.567973,-1.34409 1.520473,-2.65642 2.070806,-4.15855 -7.560028,-5.54214 -23.604363,-13.54455 -28.038779,-12.39485 -3.619501,0.93875 -0.370417,7.34378 2.995083,11.02043 0,0 2.614084,-1.6323 4.395611,-2.35232 -0.878416,1.28587 -2.00025,2.28318 -2.935111,3.40078 1.11125,0.78105 2.247195,1.32362 3.298473,1.48942 5.506861,0.86078 14.756695,23.37506 23.770168,10.6292 0.705555,-1.00189 2.614083,-3.78883 0.335139,-8.18092 -0.324556,-0.62441 -1.093612,-1.42875 -2.187223,-2.34244"
       style="fill:#b4a466;fill-opacity:1;fill-rule:nonzero;stroke:none;stroke-width:0.0352778"
       id="path1638" />
    <path
       d="m 38.447702,142.04772 c -5.330472,-2.99543 -9.161639,-6.45477 -11.352389,-8.55627 -1.841501,1.70251 -0.635,5.55167 4.028722,10.44293 0,0 2.614084,-1.6323 4.395611,-2.35232 -0.878416,1.28587 -2.00025,2.28318 -2.935111,3.40078 1.11125,0.78105 2.247195,1.32362 3.298473,1.48942 5.355167,0.83609 14.252223,22.15092 23.025807,11.59228 -1.933223,-4.64961 -12.922251,-11.77925 -20.461113,-16.01682"
       style="fill:#eae28d;fill-opacity:1;fill-rule:nonzero;stroke:none;stroke-width:0.0352778"
       id="path1640" />
    <path
       d="m 45.707869,156.11368 c 0.980723,-2.40242 2.472973,-6.2865 3.009195,-7.6835 -0.846667,-0.58561 -4.353278,-2.85362 -5.221111,-3.41947 -0.786695,0.78281 -4.762501,3.169 -4.762501,3.169 0.709084,0.83255 4.212167,4.80836 4.967112,5.68678 l 3.199694,-4.79425 0.151695,0.37041 -2.024945,5.93373 c 0.225778,0.25047 0.451556,0.49388 0.680861,0.7373"
       style="fill:#b4a466;fill-opacity:1;fill-rule:nonzero;stroke:none;stroke-width:0.0352778"
       id="path1642" />
    <path
       d="m 99.562928,178.57152 c -0.585611,0.99836 -1.721555,1.58397 -3.189111,1.85913 -0.08114,-0.56091 -0.08819,-1.12183 -0.09525,-1.68275 -0.737306,0.62795 -1.474611,1.25589 -2.2225,1.87678 -5.471584,0.004 -13.218584,-2.58939 -16.513529,-4.66372 -4.840111,-3.05153 -3.707695,-7.41539 -3.707695,-7.41539 2.307167,-2.413 4.180417,-3.21733 5.976056,-2.96333 0.105834,2.01789 0.723195,4.09575 0.723195,4.09575 0,0 0.0635,-2.11314 1.351139,-3.6195 1.700389,1.21003 4.586111,3.99697 6.801556,6.0325 1.023055,0.94191 2.091972,1.61572 3.146778,2.10961 -0.342195,0.43392 -0.776111,0.83255 -0.977195,1.32292 0.511528,-0.37395 1.097139,-0.67734 1.68275,-1.016 4.864806,1.9438 9.168698,0.41275 7.023806,4.064"
       style="fill:#b4a466;fill-opacity:1;fill-rule:nonzero;stroke:none;stroke-width:0.0352778"
       id="path1644" />
    <path
       d="m 62.993982,162.34021 c -0.137584,1.1183 0.652638,2.13431 1.770944,2.27542 1.114778,0.14111 2.134306,-0.65264 2.275417,-1.76742 0.137583,-1.11831 -0.652639,-2.13783 -1.770945,-2.27542 -1.114778,-0.14111 -2.134305,0.64911 -2.275416,1.76742"
       style="fill:#b4a466;fill-opacity:1;fill-rule:nonzero;stroke:none;stroke-width:0.0352778"
       id="path1646" />
    <path
       d="m 63.403204,162.22379 c -0.102306,0.79728 0.550333,1.53459 1.453444,1.64748 0.903111,0.11288 1.718028,-0.44098 1.816806,-1.23473 0.09878,-0.79728 -0.550333,-1.53458 -1.453445,-1.64747 -0.906639,-0.11289 -1.718027,0.44097 -1.816805,1.23472"
       style="fill:#b4a466;fill-opacity:1;fill-rule:nonzero;stroke:none;stroke-width:0.0352778"
       id="path1648" />
    <path
       d="m 64.461537,163.47263 c 0.395111,0.64205 1.139472,0.89958 1.658056,0.57855 0.522111,-0.32103 0.624417,-1.10419 0.229305,-1.74272 -0.395111,-0.64206 -1.139472,-0.89958 -1.661583,-0.57856 -0.522111,0.32103 -0.620889,1.10067 -0.225778,1.74273"
       style="fill:#eae28d;fill-opacity:1;fill-rule:nonzero;stroke:none;stroke-width:0.0352778"
       id="path1650" />
    <path
       d="m 35.671341,160.72096 c -0.151695,-0.42686 -0.440972,-0.86783 -0.73025,-1.26295 2.137833,-0.31044 4.967111,-0.10936 6.646334,0.49037 2.321278,0.82902 5.834944,0.30338 8.861778,0.11641 0.141111,0.69497 0.197556,1.37936 0.09878,2.18017 0.437444,-0.6597 0.783166,-1.43581 1.054805,-2.22956 0.807862,-0.0212 1.562806,0.004 2.218973,0.10936 3.309055,0.5327 3.182055,2.2472 2.557639,4.92478 -0.994834,4.27567 -3.231445,2.98803 -12.276668,2.59645 -2.758722,-0.11995 -5.012972,-0.71614 -6.822722,-1.56986 0.384527,-0.8255 0.691444,-1.68275 1.199444,-2.44828 -0.790222,0.61383 -1.622778,1.17475 -2.395361,1.80975 -1.767417,-1.06186 -3.002139,-2.37067 -3.774723,-3.63714 -0.740833,-1.21356 0.423334,-1.94381 2.218973,-2.27542 0.402167,0.35984 0.779639,0.73025 1.143,1.19592"
       style="fill:#b4a466;fill-opacity:1;fill-rule:nonzero;stroke:none;stroke-width:0.0352778"
       id="path1652" />
    <path
       d="m 56.492287,164.54154 c -0.03528,0.16581 -0.07056,0.33514 -0.112889,0.508 -0.994834,4.27567 -3.231445,2.98803 -12.276668,2.59645 -2.758722,-0.11995 -5.012972,-0.71614 -6.822722,-1.56986 0.384527,-0.8255 0.691444,-1.68275 1.199444,-2.44828 -0.790222,0.61383 -1.622778,1.17475 -2.395361,1.80975 -1.767417,-1.06186 -3.002139,-2.37067 -3.774723,-3.63714 -0.201083,-0.32456 -0.257527,-0.61383 -0.208138,-0.87136 7.3025,3.17853 20.630445,3.56658 24.391057,3.61244"
       style="fill:#eae28d;fill-opacity:1;fill-rule:nonzero;stroke:none;stroke-width:0.0352778"
       id="path1654" />
    <path
       d="m 40.246869,167.11329 -0.0035,-3.94405 c -0.931333,-0.16581 -1.852083,-0.34925 -2.748139,-0.55034 l -2.568222,2.032 c 0.359833,0.27517 0.740833,0.53975 1.157111,0.7867 0.772583,-0.635 1.605139,-1.19592 2.395361,-1.80975 -0.508,0.76553 -0.814917,1.62278 -1.199444,2.44828 0.881944,0.41627 1.869722,0.76905 2.966861,1.03716"
       style="fill:#b4a466;fill-opacity:1;fill-rule:nonzero;stroke:none;stroke-width:0.0352778"
       id="path1656" />
    <path
       d="m 46.540425,167.77652 c 0.596194,0.0388 1.150056,0.0811 1.675694,0.11994 l 0.889001,-3.67594 c -0.472723,-0.0353 -0.952501,-0.0706 -1.446389,-0.11289 l -1.118306,3.66889"
       style="fill:#b4a466;fill-opacity:1;fill-rule:nonzero;stroke:none;stroke-width:0.0352778"
       id="path1658" />
    <path
       d="m 95.728234,127.40427 c -1.344084,-0.86924 -3.115028,-0.88865 -5.101167,-0.31856 0.246944,0.74366 0.589139,1.44286 0.927805,2.14207 -1.30175,-0.32138 -2.607028,-0.6417 -3.915833,-0.94333 -6.776862,3.39231 -14.753168,11.41766 -17.54364,16.03269 -4.099278,6.78357 0.01764,11.48257 0.01764,11.48257 4.353278,1.54869 7.171972,1.38289 9.235722,-0.0423 -1.125361,-2.56823 -1.651,-5.52098 -1.651,-5.52098 0,0 1.393473,2.57528 3.926417,3.64067 1.351139,-2.55411 3.192639,-7.79639 4.66725,-11.69635 0.680862,-1.79916 1.583973,-3.29671 2.585862,-4.56424 -0.691445,-0.32596 -1.474611,-0.54786 -2.032,-1.0294 0.867833,0.1464 1.781527,0.15839 2.716389,0.21272 4.815417,-5.42748 11.091331,-6.21136 6.166556,-9.39553"
       style="fill:#b4a466;fill-opacity:1;fill-rule:nonzero;stroke:none;stroke-width:0.0352778"
       id="path1660" />
    <path
       d="m 96.768928,128.18673 c -2.677583,0.96062 -8.808862,3.44911 -11.941528,7.04674 -3.933473,4.51626 -12.266085,15.78963 -14.467418,20.65091 4.212167,1.45344 6.963834,1.27 8.988778,-0.127 -1.125361,-2.56823 -1.651,-5.52098 -1.651,-5.52098 0,0 1.393473,2.57528 3.926417,3.64067 1.351139,-2.55411 3.192639,-7.79639 4.66725,-11.69635 0.680862,-1.79916 1.583973,-3.29671 2.585862,-4.56424 -0.691445,-0.32596 -1.474611,-0.54786 -2.032,-1.0294 0.867833,0.1464 1.781527,0.15839 2.716389,0.21272 4.395611,-4.95441 10.008306,-6.03955 7.20725,-8.61307"
       style="fill:#eae28d;fill-opacity:1;fill-rule:nonzero;stroke:none;stroke-width:0.0352778"
       id="path1662" />
    <path
       d="m 64.472121,158.36793 c 1.474611,-0.508 2.684639,0.28222 4.935361,-4.61786 0.472722,-1.03011 0.684389,-2.63525 0.712611,-4.54378 -1.400528,0.13406 -2.76225,0.0776 -4.233334,0.54681 1.425223,-0.61031 2.81164,-1.36172 4.222751,-2.07786 -0.151695,-5.05531 -1.315861,-11.55524 -2.384778,-15.49965 -0.455084,0.40358 -2.342445,2.04576 -2.797528,2.44934 1.340556,-1.9745 2.451806,-3.64455 2.451806,-3.64455 -0.321028,-1.03611 -0.620889,-1.784 -0.867834,-2.12443 -1.531055,-2.11455 -5.263445,-2.27224 -7.630584,4.58294 -0.395111,1.14123 -0.762,2.68499 -1.058333,4.44853 1.576917,0.78069 4.194528,2.3308 4.194528,2.3308 0,0 -3.118556,0.36724 -4.589639,0.54963 -0.518584,4.79319 -0.462139,10.36461 0.860778,14.0088 0.712611,-0.0776 1.435805,-0.23989 2.271889,0.0212 -0.6985,0.0988 -1.0795,0.80786 -1.700389,1.28411 1.150055,2.14842 2.942167,3.21028 5.612695,2.286"
       style="fill:#b4a466;fill-opacity:1;fill-rule:nonzero;stroke:none;stroke-width:0.0352778"
       id="path1664" />
    <path
       d="m 57.427148,140.76785 c -0.518584,4.79319 -0.462139,10.36461 0.860778,14.0088 0.712611,-0.0776 1.435805,-0.23989 2.271889,0.0212 -0.6985,0.0988 -1.0795,0.80786 -1.700389,1.28411 1.150055,2.14842 2.942167,3.21028 5.612695,2.286 h 0.01058 c -0.684389,-2.56822 -2.303639,-9.33803 -1.266472,-12.55748 1.157111,-3.58916 0.268111,-15.48095 -0.02822,-18.08762 -1.471083,0.47907 -3.072694,2.14418 -4.307417,5.71606 -0.395111,1.14123 -0.762,2.68499 -1.058333,4.44853 1.576917,0.78069 4.194528,2.3308 4.194528,2.3308 0,0 -3.118556,0.36724 -4.589639,0.54963"
       style="fill:#eae28d;fill-opacity:1;fill-rule:nonzero;stroke:none;stroke-width:0.0352778"
       id="path1666" />
    <path
       d="m 76.674705,166.58413 c 0.306916,-1.02659 0.47625,-2.09903 0.338666,-3.29142 0.405695,0.94192 0.610306,2.06728 1.104195,3.07975 6.505222,-1.143 18.404418,-5.3975 19.981334,-8.2162 1.291167,-2.30011 -2.268361,-3.73944 -5.782028,-3.82058 0.02822,0.10231 -2.233083,3.35139 -2.233083,3.35139 -0.225778,-1.07244 -0.183445,-2.13078 -0.296334,-3.15031 -0.938389,0.18345 -21.455945,-2.94569 -19.367501,7.85637 0.162278,0.84666 0.649111,3.17852 3.996973,4.16277 0.47625,0.13759 1.259416,0.14112 2.257778,0.0282"
       style="fill:#b4a466;fill-opacity:1;fill-rule:nonzero;stroke:none;stroke-width:0.0352778"
       id="path1668" />
    <path
       d="m 88.422205,158.95001 c 4.123973,-1.25236 7.806973,-1.61219 9.944807,-1.70038 0.03175,-1.76742 -3.023306,-2.84339 -6.05014,-2.91395 l -2.233083,3.35139 c -0.225778,-1.07244 -0.183445,-2.13078 -0.296334,-3.15031 -0.938389,0.18345 -20.588112,-2.6035 -19.498029,7.00617 3.940528,0.47978 12.297835,-0.8255 18.132779,-2.59292"
       style="fill:#eae28d;fill-opacity:1;fill-rule:nonzero;stroke:none;stroke-width:0.0352778"
       id="path1670" />
    <path
       d="m 99.979206,177.7319 c -2.039056,0.24695 -6.801556,0.62442 -9.987139,-0.68086 -4.000501,-1.64041 -11.218334,-4.75897 -16.023168,-8.64305 2.247194,-2.30011 4.081639,-3.0727 5.842,-2.82575 0.105834,2.01789 0.723195,4.09575 0.723195,4.09575 0,0 0.0635,-2.11314 1.351139,-3.6195 1.700389,1.21003 4.586111,3.99697 6.801556,6.0325 1.023055,0.94191 2.091972,1.61572 3.146778,2.10961 -0.342195,0.43392 -0.776111,0.83255 -0.977195,1.32292 0.511528,-0.37395 1.097139,-0.67734 1.68275,-1.016 4.441473,1.77094 8.413748,0.65616 7.440084,3.22438"
       style="fill:#eae28d;fill-opacity:1;fill-rule:nonzero;stroke:none;stroke-width:0.0352778"
       id="path1672" />
    <path
       d="m 64.708482,182.2016 c 0.448027,1.2065 0.924277,2.53294 1.425222,3.98992 0.596194,1.74625 1.291167,3.302 2.053167,4.68489 l 2.836333,-7.73642 c -0.617361,-1.47108 -1.199444,-2.92453 -1.735667,-4.32506 l -4.579055,3.38667"
       style="fill:#eae28d;fill-opacity:1;fill-rule:nonzero;stroke:none;stroke-width:0.0352778"
       id="path1674" />
  </g>
</svg>
