<?xml version="1.0" encoding="UTF-8" standalone="no"?>
<!-- Created with Inkscape (http://www.inkscape.org/) -->

<svg
   width="45.72459mm"
   height="28.423311mm"
   viewBox="0 0 45.72459 28.423311"
   version="1.1"
   id="svg3527"
   sodipodi:docname="rug_bw.svg"
   inkscape:version="1.1.2 (0a00cf5339, 2022-02-04)"
   xmlns:inkscape="http://www.inkscape.org/namespaces/inkscape"
   xmlns:sodipodi="http://sodipodi.sourceforge.net/DTD/sodipodi-0.dtd"
   xmlns="http://www.w3.org/2000/svg"
   xmlns:svg="http://www.w3.org/2000/svg">
  <sodipodi:namedview
     id="namedview3529"
     pagecolor="#505050"
     bordercolor="#eeeeee"
     borderopacity="1"
     inkscape:pageshadow="0"
     inkscape:pageopacity="0"
     inkscape:pagecheckerboard="0"
     inkscape:document-units="mm"
     showgrid="false"
     inkscape:zoom="0.64052329"
     inkscape:cx="-231.84169"
     inkscape:cy="316.14776"
     inkscape:window-width="952"
     inkscape:window-height="1136"
     inkscape:window-x="960"
     inkscape:window-y="32"
     inkscape:window-maximized="0"
     inkscape:current-layer="layer1" />
  <defs
     id="defs3524" />
  <g
     inkscape:label="Layer 1"
     inkscape:groupmode="layer"
     id="layer1"
     transform="translate(14.187742,113.34935)">
    <path
       d="m 31.287785,-113.10028 h -45.226466 v 27.925181 h 45.226466 v -27.925181"
       style="fill:#ffffff;fill-opacity:1;fill-rule:nonzero;stroke:none;stroke-width:0.0352778"
       id="path2430" />
    <path
       d="m 31.287785,-113.10028 v -0.24907 h -45.475527 v 28.423312 h 45.724589 v -28.423312 h -0.249062 v 0.24907 h -0.249061 v 27.67612 H -13.68962 v -27.42706 h 44.977405 v -0.24906 h -0.249061 0.249061"
       style="fill:#000000;fill-opacity:1;fill-rule:nonzero;stroke:none;stroke-width:0.0352778"
       id="path2432" />
    <path
       d="m -13.938681,-94.794291 -0.05927,-0.05786 -0.02152,0.02187 c -0.02858,0.02928 -0.03175,0.07408 -0.0078,0.106892 l 0.01905,0.02646 0.0575,0.03387 c 0.833967,0.09666 2.035528,0.321028 2.847975,0.530578 4.3642146,1.127125 8.8575454,1.926167 13.2005929,2.69875 l 2.5251835,0.449086 c 4.0121419,0.71367 8.1601036,1.451328 12.2579706,2.070806 l 0.01235,-0.0822 -0.01446,-0.08184 c -0.721783,0.128411 -1.467203,0.139347 -2.194278,0.149578 l -18.1193734,0.262114 c -0.1531055,0.0025 -0.3069166,0.0046 -0.4610805,0.0046 -0.408164,0 -0.8184445,-0.01587 -1.2167307,-0.08819 -0.4169833,-0.07549 -0.8336139,-0.2159 -1.2396612,-0.35313 l -2.6677057,-0.900995 c -0.3961695,-0.13335 -0.8424334,-0.28575 -1.3028085,-0.286102 -0.110419,0 -0.221897,0.0088 -0.333375,0.02928 -0.502003,0.09278 -0.989894,0.401461 -1.456972,0.692856 -0.551745,0.347133 -1.113367,0.691797 -1.641828,0.68968 -0.0568,0 -0.113242,-0.0039 -0.169333,-0.01199 l -0.06632,0.01976 -0.02434,0.02081 c -0.03175,0.02787 -0.03775,0.07479 -0.01376,0.109714 l 0.0187,0.02716 0.0568,0.03528 c 0.06668,0.0095 0.132997,0.01411 0.199319,0.01411 0.610306,-0.0021 1.192389,-0.373592 1.749778,-0.720725 0.462845,-0.290689 0.937331,-0.5842 1.385006,-0.664986 0.09772,-0.01799 0.196497,-0.02611 0.29598,-0.02611 0.4173365,-3.52e-4 0.8449032,0.142523 1.2375448,0.27552 l 2.6677058,0.900994 c 0.4074583,0.137231 0.8325556,0.281164 1.2685889,0.360539 0.417689,0.07585 0.8403168,0.09137 1.2551835,0.09137 0.155575,0 0.3097389,-0.0021 0.4621389,-0.0042 l 18.1197261,-0.262114 c 0.775406,-0.01129 1.582561,-0.02258 2.37102,-0.180269 l 0.05151,-0.03316 0.01764,-0.0247 -0.0028,-0.100189 -0.0187,-0.02328 -0.05256,-0.03034 c -4.140553,-0.623005 -8.3368453,-1.369483 -12.3952011,-2.091267 l -2.5248307,-0.449086 c -4.3426947,-0.772583 -8.8307339,-1.570566 -13.1854232,-2.695575 -0.824089,-0.212725 -2.029531,-0.437092 -2.875492,-0.535164 l -0.0095,0.0822 0.0127,-0.08184 -0.0021,-3.53e-4 -0.07197,0.02399 0.05927,0.05786 -0.0127,0.0822 0.0025,3.53e-4 0.0028,3.52e-4 c 0.835378,0.09701 2.039056,0.321028 2.853267,0.531284 4.3628032,1.126772 8.8550757,1.925814 13.1974177,2.698044 l 2.5251835,0.449439 c 4.0583558,0.721784 8.2557058,1.468262 12.3994338,2.09162 l 0.01235,-0.08185 -0.06456,0.05186 0.0187,0.02328 0.06491,-0.05186 -0.06773,-0.04833 -0.01764,0.02505 0.06738,0.04798 -0.01623,-0.08114 c -0.768703,0.153811 -1.565628,0.165806 -2.341033,0.176742 l -18.1193738,0.262114 c -0.1527528,0.0021 -0.3062111,0.0042 -0.4600222,0.0042 -0.4106334,0 -0.8233834,-0.01552 -1.2255501,-0.08855 -0.4198056,-0.07655 -0.8378473,-0.217311 -1.2449529,-0.354542 l -2.6677057,-0.900994 c -0.3933473,-0.132645 -0.8360834,-0.283634 -1.2908143,-0.284339 -0.108302,0 -0.217311,0.0088 -0.325966,0.02893 -0.494595,0.09137 -0.979312,0.397933 -1.443214,0.687564 -0.556331,0.349602 -1.122539,0.697441 -1.661584,0.695325 -0.05891,0 -0.117475,-0.0039 -0.175683,-0.01235 l -0.012,0.0822 0.06844,-0.04727 -0.0187,-0.02716 -0.06844,0.04727 0.05468,0.06244 0.02399,-0.02081 -0.05468,-0.06279 -0.01164,0.0822 c 0.06421,0.0092 0.128764,0.01341 0.19297,0.01341 0.600075,-0.0021 1.177219,-0.370064 1.730022,-0.714728 0.46602,-0.292453 0.943328,-0.58808 1.398764,-0.670278 0.100542,-0.01834 0.201789,-0.02646 0.303389,-0.02646 0.4229807,-7.06e-4 0.8540752,0.143228 1.2495391,0.277283 l 2.6677057,0.900995 c 0.4064,0.136878 0.8297334,0.280458 1.2632973,0.359128 0.4138084,0.07514 0.8339667,0.09102 1.246364,0.09102 0.155575,0 0.3104444,-0.0021 0.46355,-0.0046 L 14.68712,-88.762144 c 0.727076,-0.01058 1.481314,-0.02081 2.221089,-0.152047 0.03986,-0.0074 0.06879,-0.04233 0.06844,-0.0829 -7.05e-4,-0.04057 -0.03069,-0.07514 -0.07056,-0.08114 -4.095398,-0.618772 -8.2419479,-1.35643 -12.2540898,-2.069747 l -2.5251835,-0.449086 c -4.3430475,-0.772584 -8.8317923,-1.571272 -13.1878927,-2.696281 -0.822678,-0.212019 -2.026003,-0.436386 -2.8702,-0.534811 l -0.0095,0.08255 0.06703,-0.04868 -0.0194,-0.02681 -0.06703,0.04904 0.05927,0.05785 0.02152,-0.02187 -0.05927,-0.05821 -0.0127,0.0822 0.0127,-0.0822"
       style="fill:#000000;fill-opacity:1;fill-rule:nonzero;stroke:none;stroke-width:0.0352778"
       id="path2434" />
    <path
       d="m -13.938681,-100.62006 -0.05292,-0.0642 -0.02081,0.0173 c -0.02928,0.0243 -0.03845,0.0653 -0.02223,0.0998 l 0.01482,0.0303 0.04798,0.0427 c 5.7181749,1.95474 11.8741475,3.967337 18.2961146,5.981345 0.8713611,0.273403 1.862314,0.5842 2.8462113,0.763059 0.7231945,0.131233 1.4629695,0.196144 2.1762862,0.258939 0.1781528,0.01552 0.3559528,0.03104 0.5334001,0.04762 5.8352978,0.544336 11.6102698,2.173111 17.1996818,3.75285 l 0.02258,-0.07973 -0.06032,-0.05715 c -0.289278,0.308328 -0.718962,0.415572 -1.190626,0.503767 -3.873147,0.730955 -8.718903,1.847497 -11.838517,4.059767 l -0.03351,0.0515 -0.0067,0.03351 c -0.0085,0.04304 0.01799,0.08537 0.06033,0.09666 l 0.02963,0.0078 0.0695,-0.0127 c 3.068109,-2.178755 7.894814,-3.298119 11.757378,-4.024842 0.494948,-0.09419 0.987426,-0.208844 1.333501,-0.599369 l 0.0187,-0.03634 0.0053,-0.02364 -0.01975,-0.07479 -0.01517,-0.01693 -0.0388,-0.02364 c -5.60317,-1.583266 -11.401779,-3.222272 -17.2737651,-3.770841 -0.1785055,-0.01658 -0.3566583,-0.0321 -0.5348111,-0.04798 -0.7122584,-0.06209 -1.446389,-0.127 -2.1579418,-0.255764 -0.9677105,-0.176007 -1.9085689,-0.47093 -2.8215579,-0.757385 C -2.0349,-96.7321 -8.1891088,-98.743992 -13.90552,-100.69768 l -0.01341,-0.004 -0.006,-7.1e-4 -0.06668,0.0176 0.05292,0.0642 -0.01376,0.0818 0.0063,0.001 0.01376,-0.0819 -0.02716,0.0783 c 5.7181751,1.95439 11.8734422,3.966635 18.2954092,5.980643 0.912989,0.286456 1.8601974,0.583847 2.8412724,0.762353 0.7217834,0.130528 1.4605001,0.195439 2.1727585,0.257881 0.1781528,0.01587 0.3563056,0.0314 0.5341056,0.04798 5.8515253,0.5461 11.6409623,2.181578 17.2441313,3.765198 l 0.02258,-0.08008 -0.06103,0.05609 0.01552,0.01693 0.06103,-0.05609 -0.08079,-0.0187 -0.0056,0.02364 0.08079,0.0187 -0.06209,-0.05503 c -0.299508,0.340784 -0.746831,0.45332 -1.240014,0.5461 -3.868914,0.729898 -8.709378,1.845381 -11.822642,4.053064 l 0.04833,0.06773 0.02117,-0.08043 -0.02963,-0.0078 -0.02152,0.08008 0.08149,0.01623 0.0067,-0.03316 -0.08149,-0.01658 0.04798,0.06773 c 3.074811,-2.183694 7.906808,-3.304116 11.773253,-4.031897 0.473781,-0.08996 0.944739,-0.198614 1.280936,-0.553156 l 0.0194,-0.07902 -0.0575,-0.05786 c -5.589411,-1.579387 -11.373556,-3.21169 -17.2293146,-3.758142 -0.1781528,-0.01693 -0.3563056,-0.03246 -0.5344584,-0.04798 -0.7129639,-0.0628 -1.4478001,-0.127353 -2.1611168,-0.256822 -0.9701389,-0.176389 -1.9547418,-0.48507 -2.8261029,-0.75812 -6.4209088,-2.013656 -12.5754703,-4.0259 -18.2922343,-5.979942 l -0.02681,0.0783 0.07479,-0.0356 -0.01446,-0.0303 -0.07479,0.036 0.05292,0.0639 0.02081,-0.0173 -0.05292,-0.0639 -0.01376,0.0818 0.01376,-0.0818"
       style="fill:#000000;fill-opacity:1;fill-rule:nonzero;stroke:none;stroke-width:0.0352778"
       id="path2436" />
    <path
       d="m -13.938681,-108.79357 -0.04657,-0.0688 -0.0194,0.013 c -0.02928,0.0201 -0.04304,0.0568 -0.03316,0.0914 l 0.0092,0.0328 0.0381,0.0494 c 0.299156,0.17497 0.591256,0.44344 0.875948,0.70696 0.287161,0.26529 0.587022,0.54293 0.912283,0.73378 0.208492,0.12206 0.416631,0.24483 0.582436,0.41522 0.188736,0.19297 0.329495,0.45579 0.467783,0.7172 0.03034,0.0572 0.06068,0.1143 0.09172,0.17145 1.3740693,2.5146 3.8114111,3.78248 6.596239,5.06236 l 6.0007504,2.756251 c 1.2248445,0.562327 2.4959029,1.147233 3.8311669,1.437922 1.1518195,0.250119 2.3371529,0.277283 3.4925002,0.277636 0.1661584,0 0.3316112,-7.05e-4 0.4963584,-0.0011 0.1710972,-0.0011 0.3421945,-0.0014 0.5129389,-0.0014 0.065969,0 0.1322912,0 0.1982612,3.52e-4 3.020131,0.0099 5.718881,0.28822 8.251825,0.850195 3.735917,0.829028 8.083551,2.653595 12.916607,5.425723 l 0.06985,0.006 0.02928,-0.01094 c 0.04127,-0.01482 0.0635,-0.05927 0.05115,-0.101248 l -0.0095,-0.03281 -0.03845,-0.04868 c -4.847167,-2.779537 -9.211028,-4.612923 -12.974814,-5.447948 -2.548467,-0.565503 -5.26274,-0.845255 -8.295218,-0.855486 -0.05503,0 -0.110419,-3.53e-4 -0.1658051,-3.53e-4 -0.1823861,0 -0.3644194,7.06e-4 -0.5468056,0.0014 -0.1693333,7.06e-4 -0.3393722,0.0014 -0.5097639,0.0014 -1.1465278,0 -2.3124585,-0.02858 -3.4346446,-0.27305 -1.3073946,-0.284338 -2.5668113,-0.861836 -3.7895392,-1.423811 L -4.3787047,-101.065 c -2.7767141,-1.27494 -5.1639615,-2.52553 -6.4988723,-4.97134 -0.03034,-0.0557 -0.06033,-0.11218 -0.09066,-0.16933 -0.140053,-0.26388 -0.287514,-0.54434 -0.503767,-0.76624 -0.1905,-0.19508 -0.415925,-0.32632 -0.626181,-0.44979 -0.299155,-0.17498 -0.591255,-0.44344 -0.8763,-0.70697 -0.287161,-0.26493 -0.587022,-0.54292 -0.912283,-0.73377 l -0.01976,-0.008 -0.0095,-0.003 -0.06914,0.0113 0.04657,0.0688 -0.02258,0.0797 0.0099,0.003 0.02258,-0.0797 -0.04198,0.0716 c 0.303389,0.17745 0.5969,0.44733 0.883355,0.71261 0.285751,0.26318 0.583848,0.53975 0.905228,0.72849 0.210609,0.12312 0.421217,0.24765 0.591256,0.42192 0.193675,0.19826 0.336197,0.46426 0.475897,0.72849 0.03034,0.0571 0.06068,0.11395 0.09172,0.17074 1.3670144,2.5019 3.7976534,3.76661 6.5754258,5.04296 l 6.0007504,2.756252 c 1.2227278,0.561622 2.4920224,1.14547 3.8234058,1.4351 1.1430001,0.248709 2.3209251,0.276578 3.4699224,0.276578 0.1707445,0 0.3411362,-3.53e-4 0.5104695,-0.0011 0.1820333,-7.06e-4 0.3644195,-0.0014 0.5461,-0.0014 0.055033,0 0.1100671,0 0.1654531,3.52e-4 3.0226,0.01023 5.724172,0.288925 8.259586,0.851253 3.740503,0.829734 8.091312,2.656064 12.928248,5.430309 l 0.04127,-0.07232 -0.07973,0.02364 0.0099,0.03281 0.07937,-0.02364 -0.02822,-0.07796 -0.02928,0.01058 0.02822,0.07832 0.04127,-0.07232 c -4.843287,-2.777419 -9.20362,-4.609042 -12.963173,-5.443714 -2.54635,-0.564444 -5.257448,-0.844197 -8.287104,-0.854075 -0.06632,-3.53e-4 -0.132644,-3.53e-4 -0.1989662,-3.53e-4 -0.1710972,0 -0.3421944,7.06e-4 -0.5136445,0.0014 -0.1647472,3.53e-4 -0.3298472,0.0011 -0.4956528,0.0011 -1.1528778,0 -2.3262168,-0.02787 -3.4572224,-0.273756 -1.3112751,-0.285397 -2.5724557,-0.863953 -3.7969475,-1.426633 l -6.0011031,-2.756253 c -2.7841224,-1.27847 -5.1777198,-2.53224 -6.5196865,-4.99075 -0.03034,-0.0557 -0.06033,-0.11289 -0.09066,-0.16968 -0.138642,-0.26141 -0.283986,-0.53799 -0.495653,-0.75565 -0.186619,-0.19086 -0.409222,-0.31997 -0.617361,-0.44239 -0.303036,-0.17745 -0.5969,-0.44732 -0.883708,-0.71261 -0.285398,-0.26352 -0.583142,-0.53975 -0.904523,-0.72813 l -0.04198,0.0716 0.07973,-0.0226 -0.0092,-0.0332 -0.08008,0.0226 0.04657,0.0688 0.0194,-0.0134 -0.04657,-0.0684 -0.02258,0.0797 0.02258,-0.0797"
       style="fill:#000000;fill-opacity:1;fill-rule:nonzero;stroke:none;stroke-width:0.0352778"
       id="path2438" />
    <path
       d="m -11.164437,-113.12463 -0.04798,-0.0677 -0.0194,0.0138 c -0.02963,0.0208 -0.04198,0.0582 -0.03105,0.0928 l 0.0099,0.0325 0.03986,0.048 c 0.362656,0.19579 1.148292,0.54399 1.9092334,0.88159 0.7591778,0.33655 1.5462251,0.68545 1.8947696,0.87384 0.7358944,0.39687 1.49225,0.80503 2.1597056,1.34231 0.3570112,0.28717 0.6974418,0.61807 1.0279946,0.94016 0.212725,0.20743 0.4335639,0.42298 0.6589889,0.62583 0.7923389,0.71367 1.6725195,1.30774 2.5202446,1.8803 l 3.4875613,2.35373 c 2.3124585,1.56034 4.710642,3.18135 7.4235033,3.84034 1.0332857,0.25083 2.1022027,0.354546 3.1319617,0.455087 1.194505,0.116064 2.424289,0.236361 3.590572,0.581025 0.476603,0.141111 0.954264,0.323145 1.417814,0.499886 0.440267,0.167923 0.896761,0.342195 1.356783,0.482248 1.22167,0.371475 2.49802,0.51188 3.727451,0.6477 0.873125,0.09631 1.774119,0.195791 2.644422,0.375355 1.552222,0.319264 4.317648,1.216378 5.456061,3.57117 l 0.04868,0.04269 0.02928,0.0095 0.06597,-0.006 0.04057,-0.05186 0.0085,-0.03316 -0.0056,-0.05715 c -1.194153,-2.454275 -4.025901,-3.358797 -5.602465,-3.685822 -0.882297,-0.182386 -1.788583,-0.28187 -2.663119,-0.378531 -1.227314,-0.135114 -2.49167,-0.274814 -3.690056,-0.639939 -0.451203,-0.13723 -0.90417,-0.310091 -1.343378,-0.477308 -0.464256,-0.177094 -0.946503,-0.361244 -1.432983,-0.505178 -1.18992,-0.351366 -2.432403,-0.472016 -3.628673,-0.588783 -1.028347,-0.10019 -2.088092,-0.20355 -3.1033862,-0.44979 -2.6666474,-0.64664 -5.0475447,-2.25178 -7.3568282,-3.81106 l -3.48720857,-2.35373 c -0.84666673,-0.5715 -1.71908623,-1.16099 -2.49766683,-1.86232 -0.2211917,-0.19932 -0.4402667,-0.4131 -0.6529917,-0.61983 -0.3312584,-0.32279 -0.6755695,-0.65863 -1.0424584,-0.95391 -0.6868584,-0.55174 -1.4541501,-0.9652 -2.1914557,-1.36313 -0.3630084,-0.19579 -1.1482917,-0.54363 -1.9092334,-0.88124 -0.7591779,-0.33655 -1.546225,-0.6858 -1.895122,-0.87383 l -0.01835,-0.007 -0.0095,-0.002 -0.06879,0.0124 0.04798,0.0677 -0.02081,0.0804 0.0095,0.002 0.02081,-0.0804 -0.03951,0.073 c 0.361245,0.19473 1.145822,0.54257 1.9064114,0.87983 0.7598834,0.3369 1.5476362,0.68615 1.8975918,0.87524 0.7376584,0.39793 1.4954251,0.80715 2.1664084,1.34655 0.3584223,0.28857 0.6995584,0.62054 1.0308168,0.94333 0.2123722,0.20708 0.4328583,0.42192 0.6575778,0.62442 0.7898695,0.71155 1.6689918,1.30457 2.5156585,1.87642 l 3.4875613,2.35409 c 2.3092835,1.55822 4.704292,3.17747 7.4104505,3.83434 1.0308165,0.24977 2.0979695,0.353831 3.1266695,0.45402 1.19627,0.116417 2.427817,0.236714 3.597275,0.582436 0.478367,0.141464 0.956734,0.324203 1.420989,0.500945 0.439561,0.167569 0.895703,0.341488 1.354314,0.481188 1.218142,0.37077 2.492728,0.510823 3.720042,0.646289 0.874536,0.09666 1.775884,0.195792 2.64795,0.376061 1.559984,0.320676 4.33952,1.223434 5.486753,3.595865 l 0.07444,-0.03634 -0.08008,-0.02081 -0.0088,0.03281 0.08043,0.02117 0.02611,-0.07902 -0.02928,-0.0095 -0.02611,0.07867 0.07479,-0.03598 c -1.185686,-2.43699 -4.003322,-3.335867 -5.572125,-3.661481 -0.880533,-0.181681 -1.786467,-0.281164 -2.659945,-0.377825 -1.22943,-0.13582 -2.495197,-0.275873 -3.697111,-0.64135 -0.452614,-0.137936 -0.905933,-0.310798 -1.345847,-0.478367 -0.463903,-0.176742 -0.945092,-0.360539 -1.430162,-0.50412 -1.186391,-0.350661 -2.427111,-0.470605 -3.621264,-0.587375 -1.029758,-0.100186 -2.090914,-0.203906 -3.1090304,-0.451206 -2.6733502,-0.64805 -5.0574225,-2.25495 -7.369881,-3.81635 l -3.48720857,-2.35373 c -0.84807783,-0.57256 -1.72155563,-1.1624 -2.50225293,-1.8662 -0.2218972,-0.20002 -0.441325,-0.41381 -0.6544028,-0.62124 -0.3305528,-0.32208 -0.6741584,-0.65687 -1.0396362,-0.95073 -0.6833306,-0.54963 -1.4488584,-0.96203 -2.1847529,-1.3589 -0.3615973,-0.19509 -1.1461751,-0.54258 -1.9064113,-0.87983 -0.7598833,-0.33691 -1.5476359,-0.68651 -1.8975919,-0.8756 l -0.03951,0.073 0.07902,-0.0247 -0.0099,-0.0324 -0.07938,0.0247 0.04798,0.0681 0.0194,-0.0141 -0.04798,-0.0677 -0.02081,0.0804 0.02081,-0.0804"
       style="fill:#000000;fill-opacity:1;fill-rule:nonzero;stroke:none;stroke-width:0.0352778"
       id="path2440" />
    <path
       d="m 3.9559726,-107.31261 -0.053975,0.0632 c 1.5719778,1.34549 3.3051752,2.42852 5.1509086,3.21874 2.3999478,1.02729 4.9607618,1.5434 7.4319698,2.04188 l 5.2832,1.06574 c 0.936626,0.18874 2.022476,0.41592 3.07199,0.72072 0.997302,0.289988 1.846439,0.615249 2.596797,0.995544 0.432858,0.219075 0.840317,0.460728 1.210381,0.718256 0.177447,0.123825 0.348544,0.276225 0.516113,0.425802 0.177448,0.15875 0.363009,0.324909 0.562328,0.457906 0.0628,0.04233 0.131939,0.06703 0.202142,0.06703 0.06773,0 0.133703,-0.02364 0.189794,-0.06491 0.157339,-0.120298 0.246592,-0.353837 0.249062,-0.577498 l -0.0039,-0.07373 c -0.03916,-0.363361 -0.222603,-0.757061 -0.380647,-1.100667 -0.05292,-0.115358 -0.102659,-0.223308 -0.144639,-0.324203 -0.329495,-0.78599 -0.806803,-1.78576 -1.586795,-2.51425 -1.366308,-1.27247 -3.193344,-1.37442 -4.987219,-1.37478 -0.181328,0 -0.362656,0.001 -0.542925,0.002 -0.175684,0.001 -0.354895,0.002 -0.533048,0.002 -0.126294,0 -0.251883,-7.1e-4 -0.375708,-0.002 -2.876903,-0.0339 -5.740753,-0.70873 -8.515703,-1.36348 -0.807156,-0.19015 -1.636184,-0.38594 -2.406651,-0.73308 -0.497063,-0.22401 -0.9800163,-0.51576 -1.4495635,-0.79974 -0.3855862,-0.23319 -0.7863418,-0.4759 -1.1969751,-0.68016 -1.2237862,-0.61066 -2.6341918,-0.9271 -4.1080975,-0.9271 -0.1802695,0 -0.3612445,0.005 -0.542925,0.0145 -0.038453,0.002 -0.070556,0.03 -0.077258,0.0677 l -0.00847,0.0896 c 0.00141,0.22155 0.142875,0.4311 0.3958167,0.64806 l 0.053975,-0.0632 0.053975,-0.0631 c -0.2388306,-0.20355 -0.3390195,-0.37888 -0.3376084,-0.52176 l 0.00564,-0.0593 -0.081844,-0.0152 0.00423,0.0829 c 0.1788584,-0.01 0.3570112,-0.0141 0.5344584,-0.0141 1.4502695,0 2.8352752,0.3115 4.0340141,0.90946 0.4025195,0.20002 0.7993945,0.44027 1.1853335,0.67381 0.4695472,0.28363 0.9574388,0.57961 1.4672028,0.80891 0.78987,0.3556 1.629481,0.55316 2.436637,0.74331 2.77495,0.6544 5.650442,1.3335 8.551686,1.36807 0.124531,0.001 0.251178,0.002 0.377825,0.002 0.178859,0 0.358423,-0.001 0.534106,-0.002 0.180269,-10e-4 0.361244,-0.002 0.541867,-0.002 1.791758,-7e-4 3.565172,0.10795 4.873978,1.33033 0.749652,0.6985 1.220964,1.67746 1.546578,2.456393 0.0441,0.105128 0.09419,0.214136 0.147461,0.329847 0.158397,0.342195 0.333022,0.727428 0.366183,1.048456 l 0.0028,0.05644 c 0.0028,0.174978 -0.08714,0.378884 -0.181328,0.443442 -0.03246,0.02364 -0.06103,0.03246 -0.09137,0.03281 -0.03104,0 -0.06738,-0.01058 -0.109714,-0.0388 -0.185914,-0.124178 -0.366889,-0.285045 -0.544336,-0.443795 -0.16757,-0.149577 -0.3429,-0.306564 -0.531989,-0.43815 -0.376767,-0.262466 -0.790575,-0.508 -1.230136,-0.73025 -0.761295,-0.385586 -1.620309,-0.714723 -2.625373,-1.006823 -1.057627,-0.30727 -2.147711,-0.53481 -3.085394,-0.72425 l -5.283201,-1.06539 c -2.471208,-0.49848 -5.020733,-1.01318 -7.3995142,-2.03165 -1.8298584,-0.78352 -3.5485919,-1.85773 -5.1082225,-3.19264 z m 4.267553,0.19967 -0.037042,0.0744 c 0.4035778,0.20108 0.8015112,0.44203 1.1881557,0.67557 0.4684889,0.28328 0.9553227,0.5782 1.4626167,0.80645 0.786695,0.35454 1.624542,0.55139 2.429228,0.74154 2.773187,0.65369 5.646562,1.33244 8.543926,1.36666 0.127,10e-4 0.255764,0.002 0.384528,0.002 0.176388,0 0.35313,-0.001 0.526344,-0.002 0.179211,-0.001 0.358775,-0.002 0.537986,-0.002 1.800578,-3.5e-4 3.584223,0.10724 4.905728,1.34091 0.756003,0.7052 1.230489,1.69051 1.55822,2.474029 0.04339,0.103717 0.09384,0.212725 0.146755,0.32773 0.160162,0.346428 0.33655,0.735189 0.37077,1.065037 l 0.0032,0.0635 c 0.0025,0.192969 -0.09278,0.407811 -0.201083,0.482952 -0.0321,0.02364 -0.07056,0.04163 -0.115359,0.04163 -0.03493,-3.53e-4 -0.07726,-0.01023 -0.131586,-0.04621 -0.188383,-0.125589 -0.370417,-0.288219 -0.548922,-0.447322 -0.166511,-0.148872 -0.340784,-0.305153 -0.527756,-0.435328 -0.375003,-0.261055 -0.7874,-0.505883 -1.225197,-0.727075 -0.759178,-0.384175 -1.615722,-0.712603 -2.618317,-1.004003 -1.056217,-0.30692 -2.145594,-0.53446 -3.08222,-0.72319 l -0.01658,0.0815 0.0822,0.0127 0.0035,-0.024 c 0.0074,-0.0455 -0.02364,-0.0878 -0.06915,-0.0949 -0.04515,-0.007 -0.08749,0.0236 -0.0949,0.0691 l -0.0035,0.024 0.08185,0.013 0.01658,-0.0815 -5.2832,-1.0661 c -2.473325,-0.49812 -5.024614,-1.01388 -7.4076284,-2.03411 -1.8333862,-0.78493 -3.5556475,-1.86126 -5.1191587,-3.19864 -0.2494139,-0.21343 -0.3556,-0.40005 -0.3545417,-0.56021 l 0.00988,-0.0861 0.00423,-0.018 -0.081139,-0.0183 0.00353,0.0829 0.015875,-7.1e-4 c 0.1859139,-0.01 0.3697112,-0.0145 0.5528028,-0.0145 1.4566196,-3.5e-4 2.8479752,0.31256 4.0523586,0.91299 l 0.037042,-0.0744 0.037042,-0.0741 c -1.2297834,-0.61313 -2.6461863,-0.93063 -4.126442,-0.93063 -0.1862666,0 -0.3728861,0.005 -0.5605639,0.0148 l -0.015169,7e-4 c -0.037395,0.001 -0.069145,0.0282 -0.077611,0.0646 l -0.00388,0.0176 c -0.00917,0.0402 -0.014111,0.0818 -0.014111,0.12312 0.00141,0.23636 0.1481667,0.45932 0.41275,0.68615 1.5758585,1.34832 3.3122308,2.43346 5.1618448,3.22545 2.4038275,1.02905 4.9667585,1.54552 7.4400835,2.04435 l 5.2832,1.06574 0.06385,-0.0131 0.03457,-0.0554 0.0035,-0.024 c 0.0074,-0.0455 -0.02364,-0.0878 -0.06915,-0.0949 -0.04515,-0.007 -0.08749,0.0236 -0.0949,0.0691 l -0.0035,0.024 c -0.0071,0.0437 0.02187,0.0854 0.06562,0.0942 0.935567,0.18873 2.020711,0.41557 3.068814,0.72002 0.994834,0.289271 1.8415,0.613827 2.589389,0.99271 0.431448,0.218017 0.837142,0.458964 1.205442,0.715433 0.175683,0.122061 0.345722,0.273756 0.511881,0.422628 0.178858,0.159103 0.36583,0.326672 0.567619,0.461433 0.07655,0.05151 0.153811,0.07444 0.223661,0.07408 0.09031,0 0.162984,-0.03598 0.213784,-0.07338 0.169333,-0.128411 0.2667,-0.376414 0.268816,-0.617008 l -0.0042,-0.08079 c -0.04022,-0.372181 -0.225425,-0.769409 -0.384881,-1.117601 -0.05327,-0.114652 -0.102658,-0.22225 -0.144639,-0.322086 -0.331258,-0.790219 -0.811741,-1.796339 -1.598083,-2.531179 -1.378656,-1.28411 -3.216275,-1.385 -5.01897,-1.38571 -0.179916,0 -0.359833,10e-4 -0.538691,0.002 -0.173567,0.001 -0.349956,0.002 -0.525639,0.002 -0.128412,0 -0.25647,-7e-4 -0.382764,-0.002 -2.87267,-0.0335 -5.734403,-0.70838 -8.50759,-1.36243 -0.804686,-0.18944 -1.63195,-0.38523 -2.399242,-0.73096 -0.494947,-0.2226 -0.976488,-0.51364 -1.4449769,-0.79727 -0.3862917,-0.23354 -0.7877529,-0.47661 -1.1997973,-0.68192 l -0.037042,0.0741"
       style="fill:#000000;fill-opacity:1;fill-rule:nonzero;stroke:none;stroke-width:0.0352778"
       id="path2442" />
    <path
       d="m 1.2639252,-113.12463 -0.051506,-0.0649 -0.020461,0.0162 c -0.029281,0.0233 -0.039158,0.0632 -0.024694,0.0977 l 0.013406,0.031 0.045861,0.0444 c 1.1941529,0.47096 2.6320752,1.06081 4.0227253,1.6309 1.3906501,0.57044 2.8289252,1.16028 4.0248419,1.63195 0.7306026,0.28822 1.4876646,0.58667 2.2489576,0.82973 1.049514,0.33549 2.13607,0.57468 3.184173,0.80574 0.129822,0.0286 0.258939,0.0568 0.388055,0.0857 3.410303,0.756 6.842479,1.64888 10.201276,2.65395 1.905,0.56867 4.587523,1.53035 5.909381,3.22439 l 0.05891,0.0318 0.03034,0.002 0.06103,-0.0201 0.02858,-0.0579 0.0021,-0.0342 -0.01764,-0.0561 c -1.381125,-1.76142 -4.09575,-2.72027 -6.014156,-3.29636 -3.363383,-1.00647 -6.800498,-1.90076 -10.215387,-2.65782 -0.129469,-0.0289 -0.258939,-0.0572 -0.388408,-0.0857 -1.047397,-0.23107 -2.127956,-0.46919 -3.166181,-0.8008 -0.752475,-0.24025 -1.505655,-0.53728 -2.2355522,-0.82515 -1.1945056,-0.47096 -2.6320751,-1.06045 -4.0227252,-1.63089 -1.3906501,-0.57044 -2.8289252,-1.16029 -4.0251947,-1.63195 l -0.014817,-0.004 -0.00741,-0.001 -0.067028,0.0166 0.051506,0.0649 -0.015522,0.0819 0.00741,0.001 0.015522,-0.0815 -0.030692,0.0773 c 1.1948584,0.47096 2.632428,1.06081 4.0234308,1.6309 1.3902974,0.57044 2.8285724,1.16028 4.0244892,1.63195 0.7298971,0.28786 1.4866051,0.58596 2.2461361,0.82867 1.048103,0.33479 2.1336,0.57397 3.180997,0.80469 0.12947,0.0286 0.258939,0.0568 0.388056,0.0857 3.411009,0.75636 6.844242,1.64959 10.203745,2.65501 1.910645,0.57009 4.600928,1.53493 5.9309,3.23956 l 0.06562,-0.0512 -0.0829,-0.005 -0.0021,0.0342 0.0829,0.005 0.0064,-0.0825 -0.03034,-0.002 -0.0064,0.0826 0.06526,-0.0512 c -1.373364,-1.75084 -4.079876,-2.70651 -5.992637,-3.28119 -3.362678,-1.00612 -6.798734,-1.90006 -10.212917,-2.65677 -0.12947,-0.0289 -0.258586,-0.0575 -0.388056,-0.0861 -1.048455,-0.23107 -2.129719,-0.4692 -3.169708,-0.80151 -0.753887,-0.24095 -1.507773,-0.53799 -2.2383754,-0.82621 -1.1945057,-0.47096 -2.632428,-1.06045 -4.0230781,-1.63124 -1.3906501,-0.57009 -2.8285724,-1.15994 -4.0244891,-1.6316 l -0.030692,0.0773 0.076553,-0.0325 -0.013406,-0.031 -0.0762,0.0324 0.051506,0.0649 0.020461,-0.0162 -0.051858,-0.0649 -0.015522,0.0819 0.015522,-0.0819"
       style="fill:#000000;fill-opacity:1;fill-rule:nonzero;stroke:none;stroke-width:0.0352778"
       id="path2444" />
    <path
       d="m 6.1728283,-113.12463 -0.049036,-0.067 -0.019756,0.0145 c -0.029281,0.0215 -0.041275,0.0596 -0.029281,0.0942 l 0.010936,0.0321 0.041275,0.0473 c 5.5830617,2.78059 11.1767057,4.814 15.7571727,5.72664 0.838553,0.16686 1.772003,0.33196 2.719917,0.33196 0.4445,0 0.892175,-0.0363 1.334559,-0.12594 0.740833,-0.14993 1.4478,-0.37112 2.129014,-0.5842 1.086555,-0.33972 2.105025,-0.65758 3.224742,-0.71014 l 0.06032,-0.0307 0.02081,-0.0254 c 0.02646,-0.0325 0.02434,-0.0794 -0.0046,-0.10972 l -0.02222,-0.0233 -0.06385,-0.0258 c -1.15182,0.0547 -2.187928,0.37923 -3.276248,0.71931 -0.680508,0.21308 -1.380772,0.4318 -2.1082,0.57926 -0.426861,0.0864 -0.860425,0.12171 -1.293283,0.12171 -0.926042,0 -1.847145,-0.16192 -2.681112,-0.32808 -4.556831,-0.90735 -10.136717,-2.93547 -15.7053144,-5.70865 l -0.017992,-0.007 -0.00882,-0.002 -0.068086,0.0138 0.049036,0.067 -0.01905,0.0808 0.00882,0.002 0.01905,-0.0808 -0.037042,0.0744 c 5.5798864,2.77847 11.1700044,4.81118 15.7469434,5.72276 0.836789,0.16686 1.768475,0.33126 2.713567,0.33126 0.441677,0 0.88653,-0.036 1.326091,-0.12489 0.738717,-0.14957 1.444625,-0.37041 2.125134,-0.58314 1.088672,-0.34078 2.109611,-0.65899 3.234267,-0.7119 l -0.0039,-0.0829 -0.05997,0.0571 0.02222,0.0236 0.05997,-0.0575 -0.06456,-0.0522 -0.02046,0.0254 0.06456,0.0522 -0.0039,-0.0829 c -1.14688,0.054 -2.180166,0.37818 -3.266722,0.71755 -0.680861,0.21308 -1.382536,0.43216 -2.112081,0.57962 -0.429683,0.0871 -0.866422,0.12276 -1.30175,0.12276 -0.928864,0 -1.85173,-0.16227 -2.687461,-0.32878 -4.560006,-0.90841 -10.14342,-2.93688 -15.7155459,-5.71218 l -0.037042,0.0741 0.078669,-0.0268 -0.010936,-0.0321 -0.078669,0.0268 0.049036,0.067 0.019756,-0.0145 -0.049036,-0.067 -0.01905,0.0808 0.01905,-0.0808"
       style="fill:#000000;fill-opacity:1;fill-rule:nonzero;stroke:none;stroke-width:0.0352778"
       id="path2446" />
  </g>
</svg>
