<?xml version="1.0" encoding="UTF-8" standalone="no"?>
<!-- Created with Inkscape (http://www.inkscape.org/) -->

<svg
   width="138.54926mm"
   height="50.7365mm"
   viewBox="0 0 138.54926 50.7365"
   version="1.1"
   id="svg37308"
   inkscape:version="1.1.2 (0a00cf5339, 2022-02-04)"
   sodipodi:docname="sofa.svg"
   xmlns:inkscape="http://www.inkscape.org/namespaces/inkscape"
   xmlns:sodipodi="http://sodipodi.sourceforge.net/DTD/sodipodi-0.dtd"
   xmlns="http://www.w3.org/2000/svg"
   xmlns:svg="http://www.w3.org/2000/svg">
  <sodipodi:namedview
     id="namedview37310"
     pagecolor="#505050"
     bordercolor="#eeeeee"
     borderopacity="1"
     inkscape:pageshadow="0"
     inkscape:pageopacity="0"
     inkscape:pagecheckerboard="0"
     inkscape:document-units="mm"
     showgrid="false"
     inkscape:zoom="0.64052329"
     inkscape:cx="466.02521"
     inkscape:cy="80.403009"
     inkscape:window-width="1016"
     inkscape:window-height="552"
     inkscape:window-x="896"
     inkscape:window-y="32"
     inkscape:window-maximized="0"
     inkscape:current-layer="layer1" />
  <defs
     id="defs37305" />
  <g
     inkscape:label="Layer 1"
     inkscape:groupmode="layer"
     id="layer1"
     transform="translate(24.662662,-127.05595)">
    <path
       d="M 104.30408,177.79245 H 73.185905 c -3.582812,0 -6.487231,-2.90689 -6.487231,-6.48758 v -34.46992 h 44.092286 v 34.46992 c 0,3.58069 -2.90442,6.48758 -6.48688,6.48758"
       style="fill:#c5b3a9;fill-opacity:1;fill-rule:nonzero;stroke:none;stroke-width:0.0352778"
       id="path1894" />
    <path
       d="m 73.185905,174.51162 c -1.768828,0 -3.207456,-1.43934 -3.207456,-3.20675 v -31.18909 h 37.533091 v 31.18909 c 0,1.76741 -1.43898,3.20675 -3.20746,3.20675 H 73.185905"
       style="fill:#cdbdb6;fill-opacity:1;fill-rule:nonzero;stroke:none;stroke-width:0.0352778"
       id="path1896" />
    <path
       d="m 73.160858,177.79245 c -0.0025,0 -0.0049,0 -0.0071,0 0.0025,0 0.0046,0 0.0071,0 m -0.02611,0 c -0.0025,0 -0.0046,0 -0.0071,0 0.0025,0 0.0049,0 0.0071,0 m -0.05786,0 c -0.0014,-0.004 -0.0032,-0.004 -0.0046,-0.004 0.0014,0 0.0028,0 0.0046,0.004 m -0.02681,-0.004 c -0.0014,0 -0.0025,0 -0.0039,0 0.0011,0 0.0028,0 0.0039,0"
       style="fill:#736d67;fill-opacity:1;fill-rule:nonzero;stroke:none;stroke-width:0.0352778"
       id="path1898" />
    <path
       d="M 104.30408,177.79245 H 73.185905 v 0 c -0.0085,0 -0.01658,0 -0.02505,0 -0.0025,0 -0.0046,0 -0.0071,0 -0.0063,0 -0.0127,0 -0.01905,0 -0.0021,0 -0.0046,0 -0.0071,0 -0.01693,0 -0.03387,0 -0.0508,0 -0.0018,-0.004 -0.0032,-0.004 -0.0046,-0.004 -0.0078,0 -0.01482,0 -0.02223,0 -0.0011,0 -0.0028,0 -0.0039,0 -2.303286,-0.0459 -4.305653,-1.30175 -5.417962,-3.1503 1.527175,-0.0635 2.99332,-0.17992 4.40549,-0.33867 0.357716,0.13758 0.746125,0.21167 1.152172,0.21167 h 31.118175 c 1.76848,0 3.20746,-1.43934 3.20746,-3.20675 v -6.7557 c 0.10477,0.0282 0.21096,0.0529 0.3182,0.0741 l 0.0268,0.004 c 0.15311,0.0318 0.30833,0.0565 0.46638,0.0706 0.0917,0.0106 0.18591,0.0106 0.27904,0.0141 0.0766,0.004 0.1524,0.0141 0.23001,0.0141 l 0.007,-0.004 0.007,0.004 c 0.51505,0 1.01212,-0.0741 1.48025,-0.22578 l 0.005,-0.004 0.0455,-0.0176 c 0.14076,-0.0423 0.2787,-0.0952 0.41381,-0.1517 v 6.97795 c 0,0.23636 -0.0127,0.47272 -0.0378,0.70555 -0.35101,3.24909 -3.10444,5.78203 -6.44913,5.78203"
       style="fill:#bda798;fill-opacity:1;fill-rule:nonzero;stroke:none;stroke-width:0.0352778"
       id="path1900" />
    <path
       d="M 104.30408,174.51162 H 73.185905 c -0.406047,0 -0.794456,-0.0741 -1.152172,-0.21167 18.942756,-2.16958 27.733274,-12.79525 31.755647,-22.61306 l 0.002,7.99748 c 0,2.3248 1.57691,4.28272 3.72004,4.8648 v 6.7557 c 0,1.76741 -1.43898,3.20675 -3.20746,3.20675 m -3.70769,-6.49464 2.13783,2.13783 c 0.0769,0.0776 0.1778,0.11289 0.27834,0.11289 0.10054,0 0.20144,-0.0353 0.27834,-0.11289 0.15346,-0.15522 0.15346,-0.40217 0,-0.55739 l -2.13818,-2.13783 c 0.084,-0.16581 0.13546,-0.35278 0.13546,-0.55386 0,-0.20109 -0.0515,-0.38453 -0.13546,-0.55386 l 2.13818,-2.13784 c 0.15346,-0.15169 0.15346,-0.40216 0,-0.55739 -0.0769,-0.0741 -0.17744,-0.11288 -0.27834,-0.11288 -0.10054,0 -0.20143,0.0388 -0.27834,0.11288 l -2.13783,2.13784 c -0.16757,-0.0811 -0.35384,-0.13406 -0.55386,-0.13406 -0.200029,0 -0.386296,0.0529 -0.553865,0.13406 l -2.138186,-2.13784 c -0.07691,-0.0741 -0.177448,-0.11288 -0.278342,-0.11288 -0.100542,0 -0.201436,0.0388 -0.277989,0.11288 -0.154164,0.15523 -0.154164,0.4057 0,0.55739 l 2.137833,2.13784 c -0.08361,0.16933 -0.135113,0.35277 -0.135113,0.55386 0,0.20108 0.0515,0.38805 0.135113,0.55386 l -2.137833,2.13783 c -0.154164,0.15522 -0.154164,0.40217 0,0.55739 0.07655,0.0776 0.177094,0.11289 0.277989,0.11289 0.100894,0 0.201436,-0.0353 0.278342,-0.11289 l 2.138186,-2.13783 c 0.167569,0.0847 0.353836,0.13405 0.553865,0.13405 0.20002,0 0.38629,-0.0494 0.55386,-0.13405"
       style="fill:#c3afa3;fill-opacity:1;fill-rule:nonzero;stroke:none;stroke-width:0.0352778"
       id="path1902" />
    <path
       d="m 16.118804,177.79245 h -31.11853 c -3.582811,0 -6.486878,-2.90689 -6.486878,-6.48758 v -34.46992 h 44.092286 v 34.46992 c 0,3.58069 -2.904419,6.48758 -6.486878,6.48758"
       style="fill:#c5b3a9;fill-opacity:1;fill-rule:nonzero;stroke:none;stroke-width:0.0352778"
       id="path1904" />
    <path
       d="m -14.999726,174.51162 c -1.768475,0 -3.207455,-1.43934 -3.207455,-3.20675 v -31.18909 h 37.533088 v 31.18909 c 0,1.76741 -1.438981,3.20675 -3.207456,3.20675 h -31.118177"
       style="fill:#cdbdb6;fill-opacity:1;fill-rule:nonzero;stroke:none;stroke-width:0.0352778"
       id="path1906" />
    <path
       d="m -15.024773,177.79245 c -0.0021,0 -0.0046,0 -0.0071,0 0.0025,0 0.0046,0 0.0071,0 m -0.02611,0 c -0.0021,0 -0.0046,0 -0.0067,0 0.0021,0 0.0046,0 0.0067,0 m -0.0575,0 c -0.0018,-0.004 -0.0035,-0.004 -0.0049,-0.004 0.0018,0 0.0032,0 0.0049,0.004 m -0.02716,-0.004 c -0.0014,0 -0.0025,0 -0.0035,0 0.0011,0 0.0025,0 0.0035,0"
       style="fill:#736d67;fill-opacity:1;fill-rule:nonzero;stroke:none;stroke-width:0.0352778"
       id="path1908" />
    <path
       d="m 16.118804,177.79245 h -31.11853 v 0 c -0.0085,0 -0.01658,0 -0.02505,0 -0.0025,0 -0.0046,0 -0.0071,0 -0.0063,0 -0.0127,0 -0.01905,0 -0.0021,0 -0.0046,0 -0.0067,0 -0.01693,0 -0.03387,0 -0.0508,0 -0.0018,-0.004 -0.0032,-0.004 -0.0049,-0.004 -0.0074,0 -0.01482,0 -0.02223,0 -0.0011,0 -0.0025,0 -0.0035,0 -2.303639,-0.0459 -4.306006,-1.30175 -5.417961,-3.1503 1.526822,-0.0635 2.993319,-0.17992 4.405136,-0.33867 0.357717,0.13758 0.746478,0.21167 1.152172,0.21167 h 31.118177 c 1.768475,0 3.207456,-1.43934 3.207456,-3.20675 v -31.18909 h -0.737658 c 0.152047,-1.24883 0.23495,-2.35655 0.274108,-3.28083 h 3.743325 v 34.46992 c 0,0.23636 -0.01305,0.47272 -0.03775,0.70555 -0.351014,3.24909 -3.104797,5.78203 -6.449484,5.78203"
       style="fill:#bda798;fill-opacity:1;fill-rule:nonzero;stroke:none;stroke-width:0.0352778"
       id="path1910" />
    <path
       d="m 16.118451,174.51162 h -31.118177 c -0.405694,0 -0.794455,-0.0741 -1.152172,-0.21167 27.164596,-3.1115 33.450391,-23.61142 34.740147,-34.18417 h 0.737658 v 31.18909 c 0,1.76741 -1.438981,3.20675 -3.207456,3.20675 m -3.707342,-6.49464 2.137834,2.13783 c 0.07691,0.0776 0.177447,0.11289 0.278341,0.11289 0.100542,0 0.201437,-0.0353 0.277989,-0.11289 0.153812,-0.15522 0.153812,-0.40217 0,-0.55739 l -2.137833,-2.13783 c 0.08396,-0.16581 0.135114,-0.35278 0.135114,-0.55386 0,-0.20109 -0.05115,-0.38453 -0.135114,-0.55386 l 2.137833,-2.13784 c 0.153812,-0.15169 0.153812,-0.40216 0,-0.55739 -0.07691,-0.0741 -0.177447,-0.11288 -0.277989,-0.11288 -0.100894,0 -0.201436,0.0388 -0.278341,0.11288 l -2.137834,2.13784 c -0.167569,-0.0811 -0.354189,-0.13406 -0.554214,-0.13406 -0.200025,0 -0.386291,0.0529 -0.553861,0.13406 l -2.1378332,-2.13784 c -0.076906,-0.0741 -0.1778,-0.11288 -0.2783417,-0.11288 -0.1008944,0 -0.2014361,0.0388 -0.2783417,0.11288 -0.1538111,0.15523 -0.1538111,0.4057 0,0.55739 l 2.1381866,2.13784 c -0.08396,0.16933 -0.135467,0.35277 -0.135467,0.55386 0,0.20108 0.05151,0.38805 0.135467,0.55386 l -2.1381866,2.13783 c -0.1538111,0.15522 -0.1538111,0.40217 0,0.55739 0.076553,0.0776 0.1774473,0.11289 0.2783417,0.11289 0.1005417,0 0.2010834,-0.0353 0.2783417,-0.11289 l 2.1378332,-2.13783 c 0.16757,0.0847 0.353836,0.13405 0.553861,0.13405 0.200025,0 0.386645,-0.0494 0.554214,-0.13405"
       style="fill:#c3afa3;fill-opacity:1;fill-rule:nonzero;stroke:none;stroke-width:0.0352778"
       id="path1912" />
    <path
       d="M 60.210737,177.79245 H 29.09256 c -3.582458,0 -6.486878,-2.90689 -6.486878,-6.48758 v -34.46992 h 44.092286 v 34.46992 c 0,3.58069 -2.904419,6.48758 -6.487231,6.48758"
       style="fill:#c5b3a9;fill-opacity:1;fill-rule:nonzero;stroke:none;stroke-width:0.0352778"
       id="path1914" />
    <path
       d="m 29.09256,174.51162 c -1.768475,0 -3.207455,-1.43934 -3.207455,-3.20675 v -31.18909 h 37.533088 v 31.18909 c 0,1.76741 -1.438981,3.20675 -3.207456,3.20675 H 29.09256"
       style="fill:#cdbdb6;fill-opacity:1;fill-rule:nonzero;stroke:none;stroke-width:0.0352778"
       id="path1916" />
    <path
       d="m 29.067513,177.79245 c -0.0021,0 -0.0046,0 -0.0067,0 0.0021,0 0.0046,0 0.0067,0 m -0.02611,0 c -0.0021,0 -0.0042,0 -0.0067,0 0.0021,0 0.0046,0 0.0067,0 m -0.0575,0 c -0.0018,-0.004 -0.0032,-0.004 -0.0049,-0.004 0.0018,0 0.0032,0 0.0049,0.004 m -0.02716,-0.004 c -0.0011,0 -0.0025,0 -0.0035,0 0.0011,0 0.0025,0 0.0035,0"
       style="fill:#736d67;fill-opacity:1;fill-rule:nonzero;stroke:none;stroke-width:0.0352778"
       id="path1918" />
    <path
       d="M 60.210737,177.79245 H 29.09256 v 0 c -0.0081,0 -0.01658,0 -0.02505,0 -0.0021,0 -0.0046,0 -0.0067,0 -0.0064,0 -0.01305,0 -0.0194,0 -0.0021,0 -0.0046,0 -0.0067,0 -0.01693,0 -0.03387,0 -0.0508,0 -0.0018,-0.004 -0.0032,-0.004 -0.0049,-0.004 -0.0074,0 -0.01482,0 -0.02222,0 -0.0011,0 -0.0025,0 -0.0035,0 -2.303639,-0.0459 -4.306006,-1.30175 -5.417961,-3.1503 1.526822,-0.0635 2.992967,-0.17992 4.405136,-0.33867 0.357717,0.13758 0.746125,0.21167 1.152172,0.21167 h 31.118177 c 1.768475,0 3.207456,-1.43934 3.207456,-3.20675 v -31.18909 h -0.737305 c 0.151694,-1.24883 0.234597,-2.35655 0.273755,-3.28083 h 3.743325 v 34.46992 c 0,3.58069 -2.904419,6.48758 -6.487231,6.48758"
       style="fill:#bda798;fill-opacity:1;fill-rule:nonzero;stroke:none;stroke-width:0.0352778"
       id="path1920" />
    <path
       d="M 60.210737,174.51162 H 29.09256 c -0.406047,0 -0.794455,-0.0741 -1.152172,-0.21167 27.164243,-3.1115 33.450391,-23.61142 34.7405,-34.18417 h 0.737305 v 31.18909 c 0,1.76741 -1.438981,3.20675 -3.207456,3.20675 m -3.869267,-6.49464 2.137834,2.13783 c 0.07726,0.0776 0.1778,0.11289 0.278342,0.11289 0.100894,0 0.201436,-0.0353 0.278341,-0.11289 0.153811,-0.15522 0.153811,-0.40217 0,-0.55739 l -2.137833,-2.13783 c 0.08361,-0.16581 0.135114,-0.35278 0.135114,-0.55386 0,-0.20109 -0.05151,-0.38453 -0.135114,-0.55386 l 2.137833,-2.13784 c 0.153811,-0.15169 0.153811,-0.40216 0,-0.55739 -0.0769,-0.0741 -0.177447,-0.11288 -0.278341,-0.11288 -0.100542,0 -0.201437,0.0388 -0.278342,0.11288 l -2.137834,2.13784 c -0.167569,-0.0811 -0.353836,-0.13406 -0.553861,-0.13406 -0.200025,0 -0.386291,0.0529 -0.553861,0.13406 l -2.138186,-2.13784 c -0.07691,-0.0741 -0.177447,-0.11288 -0.278342,-0.11288 -0.100541,0 -0.201436,0.0388 -0.278341,0.11288 -0.153459,0.15523 -0.153459,0.4057 0,0.55739 l 2.138186,2.13784 c -0.08361,0.16933 -0.135114,0.35277 -0.135114,0.55386 0,0.20108 0.05151,0.38805 0.135114,0.55386 l -2.138186,2.13783 c -0.153459,0.15522 -0.153459,0.40217 0,0.55739 0.07726,0.0776 0.1778,0.11289 0.278341,0.11289 0.100895,0 0.201436,-0.0353 0.278342,-0.11289 l 2.138186,-2.13783 c 0.16757,0.0847 0.353836,0.13405 0.553861,0.13405 0.200025,0 0.386292,-0.0494 0.553861,-0.13405"
       style="fill:#c3afa3;fill-opacity:1;fill-rule:nonzero;stroke:none;stroke-width:0.0352778"
       id="path1922" />
    <path
       d="m 113.88659,131.9137 c 0,-2.68111 -2.17417,-4.85775 -4.85564,-4.85775 H -19.807382 c -2.681816,0 -4.85528,2.17664 -4.85528,4.85775 l 0.0074,27.77067 c 0,2.78341 2.256719,5.04119 5.040489,5.04119 2.78377,0 5.040489,-2.25778 5.040489,-5.04119 V 136.76792 H 103.78515 l 0.006,22.91645 c 0,2.43769 1.7346,4.47322 4.03824,4.93889 l 0.0268,0.004 c 0.15311,0.0318 0.30833,0.0565 0.46638,0.0706 0.0917,0.0106 0.18591,0.0106 0.27904,0.0141 0.0766,0.004 0.1524,0.0141 0.23001,0.0141 l 0.007,-0.004 0.007,0.004 c 0.51505,0 1.01212,-0.0741 1.48025,-0.22578 l 0.005,-0.004 0.0455,-0.0176 c 2.02777,-0.65264 3.50944,-2.55059 3.50944,-4.79425 V 131.9137"
       style="fill:#e0c9be;fill-opacity:1;fill-rule:nonzero;stroke:none;stroke-width:0.0352778"
       id="path1924" />
    <path
       d="m 80.417497,170.2677 c -0.100542,0 -0.201083,-0.0353 -0.277989,-0.11289 l -2.138186,-2.13783 c -0.16757,0.0847 -0.353836,0.13405 -0.553509,0.13405 -0.200377,0 -0.386644,-0.0494 -0.554213,-0.13405 l -2.138187,2.13783 c -0.07655,0.0776 -0.177447,0.11289 -0.278341,0.11289 -0.100542,0 -0.201084,-0.0353 -0.278342,-0.11289 -0.153458,-0.15522 -0.153458,-0.40217 0,-0.55739 l 2.138539,-2.13783 c -0.08396,-0.16581 -0.135467,-0.35278 -0.135467,-0.55386 0,-0.20109 0.05151,-0.38453 0.135467,-0.55386 l -2.138539,-2.13784 c -0.153458,-0.15169 -0.153458,-0.40216 0,-0.55739 0.07726,-0.0741 0.1778,-0.11288 0.278342,-0.11288 0.100894,0 0.201436,0.0388 0.278341,0.11288 l 2.138187,2.13784 c 0.167569,-0.0811 0.353836,-0.13406 0.554213,-0.13406 0.199673,0 0.385939,0.0529 0.553509,0.13406 l 2.138186,-2.13784 c 0.07691,-0.0741 0.177447,-0.11288 0.278342,-0.11288 0.100541,0 0.201083,0.0388 0.277989,0.11288 0.153811,0.15523 0.153811,0.4057 0,0.55739 l -2.137834,2.13784 c 0.08361,0.16933 0.135114,0.35277 0.135114,0.55386 0,0.20108 -0.0515,0.38805 -0.135114,0.55386 l 2.137834,2.13783 c 0.153811,0.15522 0.153811,0.40217 0,0.55739 -0.07691,0.0776 -0.177448,0.11289 -0.278342,0.11289"
       style="fill:#c3afa3;fill-opacity:1;fill-rule:nonzero;stroke:none;stroke-width:0.0352778"
       id="path1926" />
    <path
       d="m 36.162933,170.2677 c -0.100894,0 -0.201436,-0.0353 -0.278342,-0.11289 l -2.138186,-2.13783 c -0.167217,0.0847 -0.353836,0.13405 -0.553508,0.13405 -0.200378,0 -0.386645,-0.0494 -0.553861,-0.13405 l -2.138539,2.13783 c -0.07691,0.0776 -0.177448,0.11289 -0.278342,0.11289 -0.100542,0 -0.201083,-0.0353 -0.277989,-0.11289 -0.153811,-0.15522 -0.153811,-0.40217 0,-0.55739 l 2.138186,-2.13783 c -0.08396,-0.16581 -0.135466,-0.35278 -0.135466,-0.55386 0,-0.20109 0.05151,-0.38453 0.135466,-0.55386 l -2.138186,-2.13784 c -0.153811,-0.15169 -0.153811,-0.40216 0,-0.55739 0.07691,-0.0741 0.177447,-0.11288 0.278342,-0.11288 0.100541,0 0.201083,0.0388 0.277989,0.11288 l 2.138539,2.13784 c 0.167216,-0.0811 0.353483,-0.13406 0.553861,-0.13406 0.199672,0 0.386291,0.0529 0.553508,0.13406 l 2.138186,-2.13784 c 0.07691,-0.0741 0.177448,-0.11288 0.277989,-0.11288 0.100895,0 0.201436,0.0388 0.278342,0.11288 0.153811,0.15523 0.153811,0.4057 0,0.55739 l -2.137834,2.13784 c 0.08396,0.16933 0.135114,0.35277 0.135114,0.55386 0,0.20108 -0.05115,0.38805 -0.135114,0.55386 l 2.137834,2.13783 c 0.153811,0.15522 0.153811,0.40217 0,0.55739 -0.07691,0.0776 -0.177447,0.11289 -0.277989,0.11289"
       style="fill:#c3afa3;fill-opacity:1;fill-rule:nonzero;stroke:none;stroke-width:0.0352778"
       id="path1928" />
    <path
       d="m 58.757646,170.2677 c -0.100542,0 -0.201084,-0.0353 -0.278342,-0.11289 l -2.137834,-2.13783 c -0.167569,0.0847 -0.353836,0.13405 -0.553861,0.13405 -0.200025,0 -0.386291,-0.0494 -0.553861,-0.13405 l -2.138186,2.13783 c -0.07691,0.0776 -0.177447,0.11289 -0.278342,0.11289 -0.100541,0 -0.201083,-0.0353 -0.278341,-0.11289 -0.153459,-0.15522 -0.153459,-0.40217 0,-0.55739 l 2.138186,-2.13783 c -0.08361,-0.16581 -0.135114,-0.35278 -0.135114,-0.55386 0,-0.20109 0.05151,-0.38453 0.135114,-0.55386 l -2.138186,-2.13784 c -0.153459,-0.15169 -0.153459,-0.40216 0,-0.55739 0.0769,-0.0741 0.1778,-0.11288 0.278341,-0.11288 0.100895,0 0.201436,0.0388 0.278342,0.11288 l 2.138186,2.13784 c 0.16757,-0.0811 0.353836,-0.13406 0.553861,-0.13406 0.200025,0 0.386292,0.0529 0.553861,0.13406 l 2.137834,-2.13784 c 0.07691,-0.0741 0.1778,-0.11288 0.278342,-0.11288 0.100894,0 0.201436,0.0388 0.278341,0.11288 0.153811,0.15523 0.153811,0.4057 0,0.55739 l -2.137833,2.13784 c 0.08361,0.16933 0.135114,0.35277 0.135114,0.55386 0,0.20108 -0.05151,0.38805 -0.135114,0.55386 l 2.137833,2.13783 c 0.153811,0.15522 0.153811,0.40217 0,0.55739 -0.0769,0.0776 -0.177447,0.11289 -0.278341,0.11289"
       style="fill:#bba493;fill-opacity:1;fill-rule:nonzero;stroke:none;stroke-width:0.0352778"
       id="path1930" />
    <path
       d="m -7.7677808,170.2677 c -0.1008945,0 -0.2014361,-0.0353 -0.2783417,-0.11289 l -2.1378335,-2.13783 c -0.167569,0.0847 -0.354189,0.13405 -0.553861,0.13405 -0.200378,0 -0.386645,-0.0494 -0.554214,-0.13405 l -2.137834,2.13783 c -0.07691,0.0776 -0.177447,0.11289 -0.278341,0.11289 -0.100895,0 -0.201436,-0.0353 -0.278342,-0.11289 -0.153458,-0.15522 -0.153458,-0.40217 0,-0.55739 l 2.138186,-2.13783 c -0.08396,-0.16581 -0.135114,-0.35278 -0.135114,-0.55386 0,-0.20109 0.05115,-0.38453 0.135114,-0.55386 l -2.138186,-2.13784 c -0.153458,-0.15169 -0.153458,-0.40216 0,-0.55739 0.07691,-0.0741 0.177447,-0.11288 0.278342,-0.11288 0.100541,0 0.201436,0.0388 0.278341,0.11288 l 2.137834,2.13784 c 0.167569,-0.0811 0.353836,-0.13406 0.554214,-0.13406 0.199672,0 0.386292,0.0529 0.553861,0.13406 l 2.1378335,-2.13784 c 0.076906,-0.0741 0.1774472,-0.11288 0.2783417,-0.11288 0.1005417,0 0.2014361,0.0388 0.2779889,0.11288 0.1538111,0.15523 0.1538111,0.4057 0,0.55739 l -2.1378335,2.13784 c 0.083608,0.16933 0.1354667,0.35277 0.1354667,0.55386 0,0.20108 -0.051858,0.38805 -0.1354667,0.55386 l 2.1378335,2.13783 c 0.1538111,0.15522 0.1538111,0.40217 0,0.55739 -0.076553,0.0776 -0.1774472,0.11289 -0.2779889,0.11289"
       style="fill:#c3afa3;fill-opacity:1;fill-rule:nonzero;stroke:none;stroke-width:0.0352778"
       id="path1932" />
    <path
       d="m 14.827284,170.2677 c -0.100894,0 -0.201436,-0.0353 -0.278341,-0.11289 l -2.137834,-2.13783 c -0.167569,0.0847 -0.354189,0.13405 -0.554214,0.13405 -0.200025,0 -0.386291,-0.0494 -0.553861,-0.13405 l -2.1378332,2.13783 c -0.077258,0.0776 -0.1778,0.11289 -0.2783417,0.11289 -0.1008944,0 -0.2017889,-0.0353 -0.2783417,-0.11289 -0.1538111,-0.15522 -0.1538111,-0.40217 0,-0.55739 l 2.1381866,-2.13783 c -0.08396,-0.16581 -0.135467,-0.35278 -0.135467,-0.55386 0,-0.20109 0.05151,-0.38453 0.135467,-0.55386 l -2.1381866,-2.13784 c -0.1538111,-0.15169 -0.1538111,-0.40216 0,-0.55739 0.076906,-0.0741 0.1774473,-0.11288 0.2783417,-0.11288 0.1005417,0 0.2014361,0.0388 0.2783417,0.11288 l 2.1378332,2.13784 c 0.16757,-0.0811 0.353836,-0.13406 0.553861,-0.13406 0.200025,0 0.386645,0.0529 0.554214,0.13406 l 2.137834,-2.13784 c 0.07691,-0.0741 0.177447,-0.11288 0.278341,-0.11288 0.100542,0 0.201084,0.0388 0.277989,0.11288 0.153812,0.15523 0.153812,0.4057 0,0.55739 l -2.137833,2.13784 c 0.08396,0.16933 0.135114,0.35277 0.135114,0.55386 0,0.20108 -0.05115,0.38805 -0.135114,0.55386 l 2.137833,2.13783 c 0.153812,0.15522 0.153812,0.40217 0,0.55739 -0.07655,0.0776 -0.177447,0.11289 -0.277989,0.11289"
       style="fill:#bba493;fill-opacity:1;fill-rule:nonzero;stroke:none;stroke-width:0.0352778"
       id="path1934" />
    <path
       d="m 103.01256,170.2677 c -0.10054,0 -0.20143,-0.0353 -0.27834,-0.11289 l -2.13783,-2.13783 c -0.16757,0.0847 -0.35384,0.13405 -0.55386,0.13405 -0.200029,0 -0.386296,-0.0494 -0.553865,-0.13405 l -2.138186,2.13783 c -0.07691,0.0776 -0.177448,0.11289 -0.278342,0.11289 -0.100895,0 -0.201436,-0.0353 -0.277989,-0.11289 -0.154164,-0.15522 -0.154164,-0.40217 0,-0.55739 l 2.137833,-2.13783 c -0.08361,-0.16581 -0.135113,-0.35278 -0.135113,-0.55386 0,-0.20109 0.0515,-0.38453 0.135113,-0.55386 l -2.137833,-2.13784 c -0.154164,-0.15169 -0.154164,-0.40216 0,-0.55739 0.07655,-0.0741 0.177447,-0.11288 0.277989,-0.11288 0.100894,0 0.201436,0.0388 0.278342,0.11288 l 2.138186,2.13784 c 0.167569,-0.0811 0.353836,-0.13406 0.553865,-0.13406 0.20002,0 0.38629,0.0529 0.55386,0.13406 l 2.13783,-2.13784 c 0.0769,-0.0741 0.1778,-0.11288 0.27834,-0.11288 0.1009,0 0.20144,0.0388 0.27834,0.11288 0.15346,0.15523 0.15346,0.4057 0,0.55739 l -2.13818,2.13784 c 0.084,0.16933 0.13546,0.35277 0.13546,0.55386 0,0.20108 -0.0515,0.38805 -0.13546,0.55386 l 2.13818,2.13783 c 0.15346,0.15522 0.15346,0.40217 0,0.55739 -0.0769,0.0776 -0.1778,0.11289 -0.27834,0.11289"
       style="fill:#bba493;fill-opacity:1;fill-rule:nonzero;stroke:none;stroke-width:0.0352778"
       id="path1936" />
    <path
       d="M 63.72899,140.11578 H 25.572896 c -1.639358,0 -2.968272,-1.32997 -2.968272,-2.97039 v -1.40053 c 0,-1.64041 1.328914,-2.97038 2.968272,-2.97038 H 63.72899 c 1.639006,0 2.96792,1.32997 2.96792,2.97038 v 1.40053 c 0,1.64042 -1.328914,2.97039 -2.96792,2.97039"
       style="fill:#f5efe1;fill-opacity:1;fill-rule:nonzero;stroke:none;stroke-width:0.0352778"
       id="path1938" />
    <path
       d="M 19.636704,140.11578 H -18.51939 c -1.639358,0 -2.968272,-1.32997 -2.968272,-2.97039 v -1.40053 c 0,-1.64041 1.328914,-2.97038 2.968272,-2.97038 h 38.156094 c 1.639006,0 2.96792,1.32997 2.96792,2.97038 v 1.40053 c 0,1.64042 -1.328914,2.97039 -2.96792,2.97039"
       style="fill:#f5efe1;fill-opacity:1;fill-rule:nonzero;stroke:none;stroke-width:0.0352778"
       id="path1940" />
    <path
       d="M 107.82198,140.11578 H 69.665888 c -1.639006,0 -2.96792,-1.32997 -2.96792,-2.97039 v -1.40053 c 0,-1.64041 1.328914,-2.97038 2.96792,-2.97038 h 38.156092 c 1.63936,0 2.96827,1.32997 2.96827,2.97038 v 1.40053 c 0,1.64042 -1.32891,2.97039 -2.96827,2.97039"
       style="fill:#f5efe1;fill-opacity:1;fill-rule:nonzero;stroke:none;stroke-width:0.0352778"
       id="path1942" />
  </g>
</svg>
