<?xml version="1.0" encoding="UTF-8" standalone="no"?>
<!-- Created with Inkscape (http://www.inkscape.org/) -->

<svg
   width="76.954239mm"
   height="27.418949mm"
   viewBox="0 0 76.954239 27.418949"
   version="1.1"
   id="svg3527"
   inkscape:version="1.1.2 (0a00cf5339, 2022-02-04)"
   sodipodi:docname="sofa_bw.svg"
   xmlns:inkscape="http://www.inkscape.org/namespaces/inkscape"
   xmlns:sodipodi="http://sodipodi.sourceforge.net/DTD/sodipodi-0.dtd"
   xmlns="http://www.w3.org/2000/svg"
   xmlns:svg="http://www.w3.org/2000/svg">
  <sodipodi:namedview
     id="namedview3529"
     pagecolor="#505050"
     bordercolor="#eeeeee"
     borderopacity="1"
     inkscape:pageshadow="0"
     inkscape:pageopacity="0"
     inkscape:pagecheckerboard="0"
     inkscape:document-units="mm"
     showgrid="false"
     inkscape:zoom="0.64052329"
     inkscape:cx="-38.249975"
     inkscape:cy="-111.62748"
     inkscape:window-width="1920"
     inkscape:window-height="1144"
     inkscape:window-x="0"
     inkscape:window-y="32"
     inkscape:window-maximized="1"
     inkscape:current-layer="layer1" />
  <defs
     id="defs3524" />
  <g
     inkscape:label="Layer 1"
     inkscape:groupmode="layer"
     id="layer1"
     transform="translate(-115.1863,-177.95673)">
    <path
       d="m 191.87596,180.30835 h -76.42508 v -2.08668 l 76.42508,-3.5e-4 v 2.08703"
       style="fill:#ffffff;fill-opacity:1;fill-rule:nonzero;stroke:none;stroke-width:0.0352778"
       id="path2366" />
    <path
       d="m 191.87596,180.30835 v -0.26458 h -76.16049 v -1.55752 l 75.89591,-3.5e-4 v 1.82245 h 0.26458 v -0.26458 0.26458 h 0.26458 v -2.35162 l -76.95424,3.6e-4 v 2.61584 h 76.95424 v -0.26458 h -0.26458"
       style="fill:#000000;fill-opacity:1;fill-rule:nonzero;stroke:none;stroke-width:0.0352778"
       id="path2368" />
    <path
       d="m 136.59392,205.1111 h -16.82751 c -2.38336,0 -4.31553,-1.93217 -4.31553,-4.31518 v -20.48757 h 25.45857 v 20.48757 c 0,2.38301 -1.93217,4.31518 -4.31553,4.31518"
       style="fill:#ffffff;fill-opacity:1;fill-rule:nonzero;stroke:none;stroke-width:0.0352778"
       id="path2370" />
    <path
       d="m 136.59392,205.1111 v -0.26458 h -16.82751 c -1.11936,0 -2.13042,-0.45297 -2.86455,-1.1864 -0.73343,-0.73377 -1.18604,-1.74484 -1.18639,-2.8642 v -20.22299 h 24.92939 v 20.22299 c 0,1.11936 -0.45296,2.13043 -1.18639,2.8642 -0.73413,0.73343 -1.74519,1.1864 -2.86455,1.1864 v 0.26458 0.26458 c 2.52941,-3.5e-4 4.57976,-2.05034 4.58011,-4.57976 V 180.04377 H 115.1863 v 20.75215 c 3.5e-4,2.52942 2.05034,4.57976 4.58011,4.57976 h 16.82751 v -0.26458"
       style="fill:#000000;fill-opacity:1;fill-rule:nonzero;stroke:none;stroke-width:0.0352778"
       id="path2372" />
    <path
       d="m 162.07717,205.1111 h -16.8275 c -2.38337,0 -4.31553,-1.93217 -4.31553,-4.31518 v -20.48757 h 25.45821 l 3.5e-4,20.48757 c 0,2.38301 -1.93216,4.31518 -4.31553,4.31518"
       style="fill:#ffffff;fill-opacity:1;fill-rule:nonzero;stroke:none;stroke-width:0.0352778"
       id="path2374" />
    <path
       d="m 162.07717,205.1111 v -0.26458 h -16.8275 c -1.11972,0 -2.13078,-0.45297 -2.86455,-1.1864 -0.73343,-0.73377 -1.1864,-1.74484 -1.1864,-2.8642 v -20.22299 h 24.92905 l 3.5e-4,20.22299 c -3.5e-4,1.11936 -0.45297,2.13043 -1.18674,2.8642 -0.73378,0.73343 -1.74484,1.1864 -2.86421,1.1864 v 0.26458 0.26458 c 2.52942,-3.5e-4 4.57976,-2.05034 4.58012,-4.57976 l -3.6e-4,-20.75215 h -25.98737 v 20.75215 c 0,2.52942 2.05034,4.57941 4.58011,4.57976 h 16.8275 v -0.26458"
       style="fill:#000000;fill-opacity:1;fill-rule:nonzero;stroke:none;stroke-width:0.0352778"
       id="path2376" />
    <path
       d="m 187.56043,205.1111 h -16.8275 c -2.38372,0 -4.31553,-1.93217 -4.31553,-4.31518 v -20.48757 h 25.45856 v 20.48757 c 0,2.38301 -1.93216,4.31518 -4.31553,4.31518"
       style="fill:#ffffff;fill-opacity:1;fill-rule:nonzero;stroke:none;stroke-width:0.0352778"
       id="path2378" />
    <path
       d="m 187.56043,205.1111 v -0.26458 h -16.8275 c -1.11972,0 -2.13078,-0.45297 -2.86456,-1.1864 -0.73342,-0.73377 -1.18639,-1.74484 -1.18639,-2.8642 v -20.22299 h 24.9294 v 20.22299 c -3.6e-4,1.11936 -0.45297,2.13043 -1.18639,2.8642 -0.73414,0.73343 -1.7452,1.1864 -2.86456,1.1864 v 0.26458 0.26458 c 2.52977,0 4.57976,-2.05034 4.58011,-4.57976 v -20.75215 h -25.98773 v 20.75215 c 0,2.52942 2.05035,4.57976 4.58012,4.57976 h 16.8275 v -0.26458"
       style="fill:#000000;fill-opacity:1;fill-rule:nonzero;stroke:none;stroke-width:0.0352778"
       id="path2380" />
    <path
       d="m 136.59392,187.2549 h -16.82751 c -2.38336,0 -4.31553,-1.93217 -4.31553,-4.31553 v -2.63102 h 25.45857 v 2.63102 c 0,2.38336 -1.93217,4.31553 -4.31553,4.31553"
       style="fill:#ffffff;fill-opacity:1;fill-rule:nonzero;stroke:none;stroke-width:0.0352778"
       id="path2382" />
    <path
       d="m 136.59392,187.2549 v -0.26459 h -16.82751 c -1.11936,-3.5e-4 -2.13042,-0.45296 -2.86455,-1.18639 -0.73343,-0.73413 -1.18639,-1.74484 -1.18639,-2.86455 v -2.36644 h 24.92939 v 2.36644 c 0,1.11971 -0.45296,2.13042 -1.18639,2.86455 -0.73413,0.73343 -1.74519,1.18604 -2.86455,1.18639 v 0.26459 0.26458 c 2.52941,-3.5e-4 4.57976,-2.05034 4.58011,-4.58011 v -2.8956 H 115.1863 v 2.8956 c 0,2.52977 2.05034,4.57976 4.58011,4.58011 h 16.82751 v -0.26458"
       style="fill:#000000;fill-opacity:1;fill-rule:nonzero;stroke:none;stroke-width:0.0352778"
       id="path2384" />
    <path
       d="m 162.07717,187.2549 h -16.8275 c -2.38337,0 -4.31553,-1.93217 -4.31553,-4.31553 v -2.63102 h 25.45821 v 2.63102 c 0,2.38336 -1.93181,4.31553 -4.31518,4.31553"
       style="fill:#ffffff;fill-opacity:1;fill-rule:nonzero;stroke:none;stroke-width:0.0352778"
       id="path2386" />
    <path
       d="m 162.07717,187.2549 v -0.26459 h -16.8275 c -1.11972,-3.5e-4 -2.13078,-0.45296 -2.86455,-1.18639 -0.73343,-0.73413 -1.1864,-1.74484 -1.1864,-2.86455 v -2.36644 h 24.92905 v 2.36644 c 0,1.11971 -0.45297,2.13042 -1.18639,2.86455 -0.73378,0.73343 -1.74484,1.18604 -2.86421,1.18639 v 0.26459 0.26458 c 2.52942,-3.5e-4 4.57976,-2.05034 4.57976,-4.58011 v -2.8956 h -25.98737 v 2.8956 c 0,2.52977 2.05034,4.57976 4.58011,4.58011 h 16.8275 v -0.26458"
       style="fill:#000000;fill-opacity:1;fill-rule:nonzero;stroke:none;stroke-width:0.0352778"
       id="path2388" />
    <path
       d="m 187.56008,187.2549 h -16.82715 c -2.38372,0 -4.31553,-1.93217 -4.31553,-4.31553 v -2.63102 h 25.45856 v 2.63102 c 0,2.38336 -1.93216,4.31553 -4.31588,4.31553"
       style="fill:#ffffff;fill-opacity:1;fill-rule:nonzero;stroke:none;stroke-width:0.0352778"
       id="path2390" />
    <path
       d="m 187.56008,187.2549 v -0.26459 h -16.82715 c -1.11972,-3.5e-4 -2.13078,-0.45296 -2.86456,-1.18639 -0.73342,-0.73413 -1.18639,-1.74484 -1.18639,-2.86455 v -2.36644 h 24.9294 v 2.36644 c -3.6e-4,1.11971 -0.45297,2.13042 -1.18675,2.86455 -0.73378,0.73343 -1.74484,1.18604 -2.86455,1.18639 v 0.26459 0.26458 c 2.52977,-3.5e-4 4.58011,-2.05034 4.58046,-4.58011 v -2.8956 h -25.98773 v 2.8956 c 0,2.52977 2.05035,4.57976 4.58012,4.58011 h 16.82715 v -0.26458"
       style="fill:#000000;fill-opacity:1;fill-rule:nonzero;stroke:none;stroke-width:0.0352778"
       id="path2392" />
  </g>
</svg>
