<?xml version="1.0" encoding="UTF-8" standalone="no"?>
<!-- Created with Inkscape (http://www.inkscape.org/) -->

<svg
   width="27.90559mm"
   height="31.134035mm"
   viewBox="0 0 27.90559 31.134035"
   version="1.1"
   id="svg3527"
   sodipodi:docname="plant_1_bw.svg"
   inkscape:version="1.1.2 (0a00cf5339, 2022-02-04)"
   xmlns:inkscape="http://www.inkscape.org/namespaces/inkscape"
   xmlns:sodipodi="http://sodipodi.sourceforge.net/DTD/sodipodi-0.dtd"
   xmlns="http://www.w3.org/2000/svg"
   xmlns:svg="http://www.w3.org/2000/svg">
  <sodipodi:namedview
     id="namedview3529"
     pagecolor="#505050"
     bordercolor="#eeeeee"
     borderopacity="1"
     inkscape:pageshadow="0"
     inkscape:pageopacity="0"
     inkscape:pagecheckerboard="0"
     inkscape:document-units="mm"
     showgrid="false"
     inkscape:zoom="0.64052329"
     inkscape:cx="52.300987"
     inkscape:cy="122.55604"
     inkscape:window-width="952"
     inkscape:window-height="1136"
     inkscape:window-x="960"
     inkscape:window-y="32"
     inkscape:window-maximized="0"
     inkscape:current-layer="layer1" />
  <defs
     id="defs3524" />
  <g
     inkscape:label="Layer 1"
     inkscape:groupmode="layer"
     id="layer1"
     transform="translate(75.087673,-51.350944)">
    <path
       d="m -62.788876,67.380922 c 0,0 7.079192,-10.626055 4.779081,-15.853446 -5.018264,2.538977 -5.801078,15.116176 -5.735109,15.967817 0,0 0.258939,-10.033354 -3.3655,-11.506906 -2.111022,5.933969 1.838325,11.207327 1.838325,11.207327 0,0 -9.247364,4.041105 -9.446331,10.296843 4.015317,0.470606 9.26077,-6.050845 11.112854,-9.07796 1.479197,6.520744 7.806267,9.33136 12.14755,9.405373 -0.955675,-5.360423 -6.332714,-9.361982 -11.33087,-10.439048"
       style="fill:#ffffff;fill-opacity:1;fill-rule:nonzero;stroke:none;stroke-width:0.0352778"
       id="path3042" />
    <path
       d="m -62.788876,67.380922 0.146756,0.09768 c 0.0025,-0.0038 1.315508,-1.97485 2.630664,-4.642167 1.314097,-2.669152 2.63525,-6.028232 2.637719,-8.845233 0,-0.915388 -0.140758,-1.775813 -0.474486,-2.534991 -0.0194,-0.0441 -0.05644,-0.07867 -0.101953,-0.0949 -0.04551,-0.01623 -0.09596,-0.01341 -0.138994,0.0085 -1.259064,0.638528 -2.239433,1.864784 -3.014486,3.355658 -1.160992,2.237917 -1.862667,5.086597 -2.278592,7.531383 -0.41522,2.446161 -0.542572,4.479996 -0.542925,5.101202 0,0.06272 0.0011,0.111513 0.0042,0.151342 0.0074,0.09313 0.08678,0.164782 0.180622,0.162313 0.09349,-0.0025 0.169334,-0.078 0.17145,-0.171838 0,-0.0014 0.0042,-0.159844 0.0042,-0.438891 -3.53e-4,-0.977195 -0.04939,-3.430376 -0.498475,-5.813814 -0.225425,-1.191612 -0.549628,-2.366363 -1.02482,-3.335408 -0.474839,-0.967387 -1.104194,-1.738806 -1.956153,-2.086751 -0.0448,-0.01834 -0.09454,-0.01725 -0.138641,0.0025 -0.0441,0.01983 -0.07796,0.05609 -0.09419,0.101988 -0.452261,1.271764 -0.630767,2.514212 -0.630767,3.681554 0.0032,4.369189 2.485673,7.675105 2.494492,7.690274 l 0.141111,-0.105551 -0.07055,-0.161502 c -0.0078,0.0034 -2.329392,1.017411 -4.685242,2.824022 -1.177925,0.903711 -2.365023,2.005436 -3.274484,3.283973 -0.908755,1.278008 -1.541286,2.737203 -1.592439,4.344847 -0.0028,0.09162 0.06491,0.169898 0.155928,0.180904 0.145697,0.01697 0.292806,0.02537 0.440972,0.02537 1.034698,-9.53e-4 2.112434,-0.401814 3.177117,-1.036144 3.190875,-1.907046 6.309784,-5.939332 7.665862,-8.150543 l -0.150636,-0.09204 -0.172156,0.03884 c 0.750358,3.309797 2.735792,5.682475 5.075414,7.228382 2.340681,1.546966 5.034845,2.276087 7.241117,2.31454 0.05292,7.06e-4 0.103011,-0.02191 0.137231,-0.06202 0.03457,-0.04022 0.04868,-0.09313 0.03951,-0.14538 -0.487186,-2.730147 -2.096206,-5.103284 -4.207934,-6.928203 -2.112433,-1.825237 -4.729339,-3.106526 -7.259461,-3.652379 l -0.03704,0.172543 0.146756,0.09768 -0.146756,-0.09768 -0.03739,0.172544 c 2.468386,0.531213 5.039078,1.789218 7.103534,3.573921 2.065161,1.785515 3.622322,4.093069 4.090811,6.723592 l 0.173919,-0.03101 0.0028,-0.176389 c -2.134659,-0.03556 -4.774848,-0.748947 -7.052381,-2.255978 -2.278945,-1.507702 -4.196645,-3.800758 -4.925837,-7.012165 -0.01587,-0.07027 -0.07267,-0.123472 -0.14358,-0.135184 -0.07091,-0.01157 -0.141464,0.02081 -0.178859,0.08227 -0.885472,1.447764 -2.5654,3.716443 -4.507442,5.613047 -0.970491,0.948232 -2.006953,1.803718 -3.038122,2.418574 -1.03117,0.615315 -2.054931,0.987108 -2.996495,0.986402 -0.135114,0 -0.268464,-0.0077 -0.40005,-0.02286 l -0.02046,0.174872 0.176389,0.0056 c 0.04833,-1.52012 0.646289,-2.912499 1.527175,-4.15149 1.320447,-1.858398 3.275895,-3.361161 4.901142,-4.393741 0.812447,-0.516467 1.541992,-0.916235 2.067631,-1.186463 0.262819,-0.134796 0.474839,-0.237454 0.620536,-0.306211 0.07303,-0.03461 0.129469,-0.06036 0.167217,-0.07758 0.0381,-0.01725 0.0568,-0.02536 0.05715,-0.02536 0.04939,-0.02191 0.08608,-0.06421 0.09984,-0.116876 0.01376,-0.05221 0.0032,-0.107209 -0.02928,-0.1506 l -0.02575,-0.03486 c -0.261055,-0.36135 -2.401005,-3.47599 -2.398536,-7.444035 0,-1.131358 0.172508,-2.332602 0.610658,-3.563338 l -0.166158,-0.05927 -0.06668,0.1633 c 0.733778,0.296969 1.318331,0.988907 1.772356,1.915196 0.681919,1.387157 1.058333,3.277694 1.258358,4.997873 0.201084,1.720498 0.228953,3.27272 0.228953,3.996197 0,0.27559 -0.0039,0.429366 -0.0039,0.429648 l 0.176389,0.0047 0.175684,-0.01379 c -0.0018,-0.02215 -0.0032,-0.06558 -0.0032,-0.123472 -7.06e-4,-0.784648 0.224719,-4.130393 1.050925,-7.560452 0.41275,-1.716193 0.975783,-3.455705 1.73108,-4.909538 0.754592,-1.455208 1.700742,-2.617964 2.860323,-3.203222 l -0.07973,-0.157339 -0.161219,0.07091 c 0.30868,0.701675 0.4445,1.513064 0.4445,2.392822 0.0025,2.709086 -1.295753,6.044918 -2.601384,8.689375 -0.651933,1.322917 -1.304925,2.474666 -1.794228,3.294875 -0.244475,0.410245 -0.44838,0.737658 -0.590903,0.962413 -0.142169,0.224366 -0.222602,0.345087 -0.222955,0.345334 -0.0321,0.04865 -0.03845,0.110102 -0.01658,0.164147 0.02187,0.05387 0.06914,0.0937 0.126295,0.106116 l 0.03739,-0.172544"
       style="fill:#000000;fill-opacity:1;fill-rule:nonzero;stroke:none;stroke-width:0.0352778"
       id="path3044" />
    <path
       d="m -63.246429,79.610317 -0.611011,-2.090208 c 0,0 0.484011,0.222285 0.865364,0.731061 0.522111,-3.935271 -0.339372,-9.226268 -0.339372,-9.226268 0,0 3.165122,7.894109 6.785328,6.966691 0.585964,-3.74329 -6.138334,-7.647552 -6.138334,-7.647552 0,0 13.575596,5.532967 15.326079,0.458858 -0.356305,-0.605226 -0.798336,-1.090013 -1.303867,-1.475176 l -2.561519,0.561552 1.580444,-1.153125 c -4.0894,-1.918511 -10.820753,0.671901 -13.042195,1.071951 1.756834,-1.062179 5.936898,-3.959931 7.987948,-6.679742 l -1.503539,0.0314 c 0,0 1.12783,-0.448133 2.039408,-0.822677 0.422628,-0.708026 0.664634,-1.390016 0.638528,-2.007659 -4.677834,-0.567619 -9.539464,8.482507 -9.539464,8.482507 0.197555,-0.747854 0.389466,-1.414286 0.570441,-2.014008 l -0.827264,0.308962 c 0,0 0.848784,-0.777487 1.112309,-1.229748 1.143,-3.616678 1.632303,-4.449974 -0.389467,-6.819936 -2.881489,1.140214 -2.905831,4.723095 -1.214261,9.586455 -2.691695,-2.973529 -3.651603,-5.564788 -6.408914,-6.419145 l 0.173919,1.59699 -2.079978,-1.890536 c -0.747183,-0.02148 -1.600553,0.0423 -2.592564,0.204223 1.04775,5.656862 9.446331,7.06053 9.446331,7.06053 0,0 -4.124678,0.753921 -6.80332,2.434837 0.458964,0.187008 0.874537,0.357752 0.874537,0.357752 l -1.627364,0.172932 c -0.776817,0.621524 -1.332089,1.347188 -1.460501,2.184329 1.03117,0.524898 2.181226,0.529873 3.328106,0.241724 l 0.631472,-1.1176 -0.08325,0.957333 c 1.413228,-0.465244 2.790825,-1.32387 3.900664,-2.151134 -1.385006,1.416791 -2.731911,3.305105 -2.155472,4.901848 1.61043,-0.01697 2.809875,-1.869722 3.570817,-3.56168 -0.286103,0.905228 -0.587728,1.964232 -0.830439,3.063911 l 0.08431,-0.08502 0.737305,-0.43367 -1.000125,1.391815 c -0.515055,2.762567 -0.553155,5.59114 1.006828,6.755694 0.938036,-0.345475 1.514122,-1.366731 1.852083,-2.698468"
       style="fill:#ffffff;fill-opacity:1;fill-rule:nonzero;stroke:none;stroke-width:0.0352778"
       id="path3046" />
    <path
       d="m -63.246429,79.610317 0.169334,-0.04932 -0.611011,-2.090208 -0.169334,0.04932 -0.07338,0.160549 0.0025,0.0011 c 0.04022,0.01859 0.464961,0.233151 0.795161,0.675111 0.04304,0.05761 0.116417,0.08294 0.185914,0.06463 0.0695,-0.01806 0.12065,-0.0762 0.130175,-0.147462 0.122767,-0.925336 0.169333,-1.920839 0.169333,-2.904772 0,-3.245556 -0.508705,-6.367357 -0.509411,-6.372578 l -0.174272,0.02822 -0.163689,0.06562 c 0.0028,0.0059 0.710847,1.773802 1.847497,3.550638 0.568678,0.888718 1.244248,1.780152 2.000251,2.457203 0.754944,0.675217 1.598083,1.144023 2.503311,1.145399 0.212019,0 0.426508,-0.02603 0.641703,-0.08114 0.06844,-0.01764 0.119591,-0.07373 0.130527,-0.143616 0.02575,-0.16577 0.0381,-0.33154 0.0381,-0.497064 -7.05e-4,-0.949995 -0.405341,-1.878541 -0.995539,-2.737167 -1.774119,-2.572386 -5.257447,-4.585442 -5.266619,-4.593414 l -0.08855,0.152682 -0.06632,0.163301 c 0.0032,0.0011 1.603023,0.653309 3.778603,1.305948 2.176639,0.652357 4.925484,1.307077 7.246056,1.308171 1.064331,-4.24e-4 2.04082,-0.137654 2.835628,-0.487963 0.794103,-0.348509 1.407936,-0.925195 1.698625,-1.77299 0.01693,-0.04865 0.01164,-0.102376 -0.01446,-0.146756 -0.367594,-0.625087 -0.826205,-1.128183 -1.349022,-1.526434 -0.04092,-0.03143 -0.09419,-0.04315 -0.144639,-0.03214 l -1.742369,0.382023 0.903111,-0.658566 c 0.05045,-0.03665 0.07761,-0.09744 0.07161,-0.159455 -0.006,-0.06216 -0.0441,-0.116452 -0.100895,-0.142911 -1.115836,-0.52324 -2.409472,-0.716139 -3.746853,-0.716421 -1.856669,2.82e-4 -3.802239,0.373169 -5.48887,0.780662 -1.684514,0.407459 -3.117497,0.851606 -3.912305,0.994093 l 0.03104,0.173496 0.09137,0.151059 c 1.770591,-1.072832 5.95383,-3.96628 8.037336,-6.724721 0.04057,-0.05359 0.04692,-0.126224 0.01623,-0.18616 -0.03069,-0.06036 -0.09313,-0.09768 -0.160514,-0.09606 l -1.503539,0.03115 0.0035,0.176389 0.06526,0.164007 c 3.52e-4,0 1.128183,-0.448416 2.041172,-0.823384 0.03528,-0.01489 0.06456,-0.03983 0.08431,-0.07264 0.410986,-0.689715 0.664633,-1.365638 0.665339,-2.006953 0,-0.03323 -7.06e-4,-0.066 -0.0018,-0.09853 -0.0035,-0.08643 -0.0695,-0.157657 -0.155222,-0.168275 -0.149225,-0.01792 -0.298803,-0.02674 -0.448381,-0.02674 -1.192036,0.0011 -2.360789,0.554532 -3.445581,1.364545 -3.248378,2.433073 -5.814483,7.227676 -5.821892,7.236495 l 0.155223,0.08364 0.170744,0.0448 c 0.196497,-0.745384 0.388056,-1.409736 0.568678,-2.008082 0.0194,-0.06382 7.05e-4,-0.133668 -0.04833,-0.179423 -0.04868,-0.0459 -0.119591,-0.06008 -0.182386,-0.03679 l -0.827264,0.309069 0.06174,0.165382 0.118886,0.129964 c 0.0018,-0.0011 0.215548,-0.197344 0.464609,-0.452015 0.249414,-0.256434 0.53093,-0.56335 0.681214,-0.818832 l 0.01587,-0.03556 c 0.577497,-1.833739 0.997655,-2.956984 1.000478,-3.975771 3.52e-4,-0.492936 -0.103717,-0.957192 -0.335139,-1.438663 -0.23107,-0.4826 -0.585964,-0.983509 -1.088673,-1.573036 -0.04904,-0.05747 -0.128763,-0.07729 -0.199319,-0.04974 -0.853017,0.336515 -1.479197,0.890059 -1.881011,1.617804 -0.40252,0.727463 -0.5842,1.621684 -0.5842,2.650102 3.52e-4,1.558855 0.41663,3.432563 1.14935,5.540411 l 0.166511,-0.05789 0.13088,-0.118216 c -1.335969,-1.475599 -2.244372,-2.860252 -3.173941,-3.997678 -0.928159,-1.135944 -1.889478,-2.031259 -3.313642,-2.471949 -0.0568,-0.01764 -0.118534,-0.0052 -0.164395,0.03253 -0.04586,0.03803 -0.0695,0.09592 -0.06315,0.155187 l 0.123472,1.134533 -1.735667,-1.577587 c -0.0314,-0.02854 -0.07126,-0.04452 -0.113594,-0.0459 -0.09454,-0.0028 -0.190853,-0.0038 -0.288572,-0.0038 -0.689681,0 -1.461206,0.06738 -2.337506,0.210573 -0.04621,0.0074 -0.08855,0.0339 -0.115711,0.07232 -0.02716,0.03888 -0.03775,0.08752 -0.02928,0.133668 0.269523,1.455208 1.013531,2.637014 1.967442,3.582917 2.864909,2.833123 7.609417,3.613503 7.623528,3.619429 l 0.02893,-0.173919 -0.03175,-0.173496 c -0.0099,0.0035 -4.140553,0.752404 -6.865409,2.459108 -0.05609,0.03528 -0.08749,0.09853 -0.08184,0.164394 0.0056,0.06643 0.04762,0.12319 0.109008,0.148273 0.458964,0.186866 0.873125,0.356905 0.874184,0.357329 l 0.06703,-0.163019 -0.0187,-0.175683 -1.627011,0.173214 c -0.03351,0.0036 -0.06562,0.01665 -0.09172,0.03775 -0.795514,0.636376 -1.385711,1.395271 -1.524706,2.295137 -0.01164,0.07549 0.02646,0.149648 0.09419,0.18422 0.622653,0.317112 1.287639,0.451874 1.96215,0.451874 0.493536,0 0.99307,-0.07193 1.489075,-0.196498 0.04692,-0.01199 0.08678,-0.04233 0.110772,-0.08435 l 0.231423,-0.409822 -0.0127,0.147426 c -0.0053,0.05955 0.0194,0.116734 0.06632,0.153811 0.04657,0.03708 0.10795,0.04766 0.164394,0.02921 1.441803,-0.475156 2.831748,-1.343731 3.951112,-2.177309 l -0.105481,-0.141394 -0.126294,-0.12319 c -0.585612,0.59944 -1.166637,1.283371 -1.605139,2.002014 -0.437798,0.718926 -0.736248,1.474647 -0.737306,2.222501 0,0.291041 0.04621,0.580037 0.147461,0.86046 0.0254,0.07056 0.09278,0.117122 0.167922,0.116452 0.876653,-0.01034 1.621367,-0.516502 2.234142,-1.212533 0.614539,-0.698147 1.110192,-1.59773 1.495425,-2.453217 l -0.160866,-0.07232 -0.167923,-0.0532 c -0.287514,0.909073 -0.59055,1.972663 -0.834672,3.078939 -0.01693,0.0762 0.0187,0.155328 0.08749,0.192652 0.06879,0.03775 0.154517,0.02537 0.20955,-0.0303 l 0.06844,-0.06876 0.717903,-0.421958 -0.08961,-0.152153 -0.143228,-0.10294 -1.000125,1.391673 -0.02999,0.07055 c -0.19438,1.0432 -0.322086,2.097653 -0.322439,3.075941 3.53e-4,0.815657 0.08855,1.578963 0.306211,2.240421 0.217312,0.660471 0.56762,1.222728 1.090789,1.612971 0.04762,0.03556 0.11042,0.0448 0.166159,0.02427 0.512233,-0.188384 0.920397,-0.560882 1.237897,-1.048421 0.318558,-0.487962 0.552097,-1.093329 0.724253,-1.772003 l -0.0014,-0.09275 -0.169334,0.04932 -0.171097,-0.04339 c -0.165453,0.653309 -0.389114,1.224527 -0.677686,1.666169 -0.289278,0.442348 -0.638528,0.752828 -1.064331,0.909779 l 0.06103,0.165911 0.10548,-0.141499 c -0.452261,-0.337643 -0.764822,-0.82864 -0.966611,-1.440744 -0.201789,-0.611047 -0.288572,-1.339886 -0.288572,-2.130037 0,-0.947562 0.124531,-1.983 0.316442,-3.011029 l -0.173567,-0.03239 0.143228,0.10294 1.000125,-1.391673 c 0.04868,-0.06809 0.04339,-0.160126 -0.01305,-0.221862 -0.05609,-0.06174 -0.147461,-0.07553 -0.219428,-0.0332 l -0.737305,0.433528 -0.03563,0.02755 -0.08431,0.08502 0.124884,0.124566 0.172155,0.03778 c 0.2413,-1.092659 0.541514,-2.147147 0.826559,-3.048529 0.02822,-0.08957 -0.01764,-0.184785 -0.105128,-0.217982 -0.08749,-0.03348 -0.185561,0.0072 -0.224014,0.09246 -0.375708,0.836048 -0.860425,1.709173 -1.438275,2.364705 -0.579967,0.657613 -1.240014,1.086168 -1.973439,1.092941 l 0.0018,0.176389 0.166158,-0.05997 c -0.08678,-0.239889 -0.126294,-0.486587 -0.126647,-0.740551 -7.06e-4,-0.65084 0.267053,-1.352939 0.6858,-2.038668 0.417689,-0.685835 0.982839,-1.352938 1.556103,-1.939184 0.06456,-0.06601 0.06738,-0.170463 0.0067,-0.239642 -0.06068,-0.06904 -0.164395,-0.08033 -0.238125,-0.02533 -1.100314,0.820597 -2.465565,1.67005 -3.850217,2.125063 l 0.05503,0.16757 0.175683,0.01531 0.08361,-0.957474 c 0.0071,-0.08255 -0.04445,-0.159173 -0.123825,-0.183833 -0.07902,-0.02438 -0.164748,0.0095 -0.20567,0.08185 l -0.631472,1.1176 0.153458,0.08682 -0.04269,-0.171168 c -0.473075,0.118921 -0.944033,0.185914 -1.40335,0.185914 -0.628297,-2.83e-4 -1.234017,-0.124566 -1.801989,-0.413421 l -0.08008,0.156951 0.174273,0.02688 c 0.117827,-0.774453 0.638175,-1.466921 1.396647,-2.073663 l -0.110419,-0.137548 0.0187,0.175295 1.627364,-0.172791 c 0.08043,-0.0085 0.144286,-0.07027 0.155928,-0.150777 0.01129,-0.08004 -0.03281,-0.157233 -0.107598,-0.18796 -3.52e-4,0 -0.415925,-0.170462 -0.874889,-0.357717 l -0.06668,0.163266 0.09384,0.149684 c 1.315156,-0.825888 3.004609,-1.432349 4.361745,-1.82813 0.678744,-0.197873 1.274586,-0.343959 1.700389,-0.440267 0.212725,-0.04837 0.383117,-0.08393 0.499886,-0.107632 0.117122,-0.02357 0.179211,-0.03486 0.179211,-0.03486 0.08431,-0.01559 0.145345,-0.08929 0.144639,-0.175013 -3.53e-4,-0.08572 -0.06279,-0.158327 -0.147108,-0.172544 0,-2.82e-4 -0.03034,-0.0052 -0.09102,-0.01654 -0.453319,-0.08541 -2.532944,-0.518548 -4.607278,-1.582244 -1.037167,-0.531636 -2.072217,-1.220258 -2.904067,-2.095852 -0.832203,-0.876583 -1.461205,-1.936715 -1.699683,-3.224072 l -0.173567,0.0321 0.02858,0.173919 c 0.860778,-0.1403 1.613959,-0.205599 2.280356,-0.205599 0.09454,0 0.187325,0.0011 0.278341,0.0038 l 0.0053,-0.176389 -0.118886,0.130492 2.080331,1.890536 c 0.05433,0.0495 0.132997,0.05994 0.198614,0.02688 0.06562,-0.03348 0.103364,-0.103364 0.09525,-0.176389 l -0.17392,-1.597025 -0.17533,0.01905 -0.05221,0.16824 c 1.333501,0.414232 2.230615,1.24146 3.144662,2.35839 0.912636,1.115095 1.829858,2.512836 3.185583,4.011048 0.05645,0.06241 0.14852,0.0762 0.220839,0.0332 0.07232,-0.04272 0.104422,-0.130211 0.07655,-0.209586 -0.725664,-2.085269 -1.1303,-3.928533 -1.129594,-5.424664 0,-0.987778 0.17533,-1.821074 0.540102,-2.479357 0.365478,-0.657861 0.916164,-1.148328 1.702153,-1.46043 l -0.06491,-0.164148 -0.134055,0.114653 c 0.492125,0.576863 0.827969,1.055864 1.03893,1.496554 0.210961,0.440972 0.299861,0.842116 0.300567,1.286263 0.0028,0.914753 -0.400756,2.029425 -0.98425,3.869549 l 0.168275,0.05292 -0.1524,-0.08848 c -0.113242,0.196498 -0.388056,0.504367 -0.629003,0.749653 -0.12065,0.123473 -0.233539,0.233575 -0.316089,0.312526 -0.08255,0.0787 -0.134056,0.125942 -0.134056,0.125942 -0.06244,0.05722 -0.07549,0.14993 -0.0314,0.222285 0.04445,0.07221 0.132997,0.102658 0.21202,0.07306 l 0.827616,-0.309103 -0.06174,-0.1651 -0.168627,-0.05112 c -0.181681,0.60138 -0.374298,1.27 -0.572206,2.019935 -0.02293,0.0864 0.02258,0.176389 0.105833,0.209162 0.08326,0.03281 0.1778,-0.0016 0.220134,-0.08075 0,0 0.01693,-0.03168 0.05115,-0.09313 0.256117,-0.461786 1.452739,-2.557639 3.108678,-4.52935 0.827264,-0.985555 1.769534,-1.939431 2.760134,-2.642235 0.9906,-0.703509 2.025297,-1.151078 3.036711,-1.150408 0.135467,0 0.270934,0.0081 0.406047,0.02427 l 0.02117,-0.174872 -0.176036,0.007 0.0014,0.08435 c 0.0011,0.54543 -0.222603,1.169106 -0.615597,1.825873 l 0.151694,0.09042 -0.06703,-0.163019 c -0.455084,0.187007 -0.964495,0.392324 -1.360312,0.551074 -0.395464,0.15875 -0.676275,0.27051 -0.67698,0.270933 -0.07937,0.0314 -0.124884,0.115323 -0.10795,0.198579 0.01693,0.08364 0.09137,0.143157 0.176741,0.141499 l 1.503187,-0.0314 -0.0035,-0.176389 -0.140759,-0.106257 c -2.018594,2.681782 -6.195483,5.583803 -7.938206,6.635116 -0.07303,0.0441 -0.104069,0.133667 -0.07373,0.213466 0.02999,0.07923 0.112183,0.126224 0.196144,0.111054 0.8382,-0.15173 2.257073,-0.593372 3.932767,-0.998396 1.673578,-0.404989 3.596217,-0.771137 5.405967,-0.770714 1.303867,-4.23e-4 2.547056,0.190006 3.597275,0.683225 l 0.07479,-0.159703 -0.103716,-0.142628 -1.580798,1.153266 c -0.06738,0.04907 -0.09137,0.138642 -0.0568,0.214842 0.03422,0.0762 0.11677,0.117828 0.198614,0.09977 l 2.56152,-0.561551 -0.03775,-0.172121 -0.106891,0.140018 c 0.488244,0.372216 0.913694,0.838517 1.258711,1.424869 l 0.152047,-0.08971 -0.166864,-0.05743 c -0.259644,0.747571 -0.780344,1.241883 -1.507772,1.56531 -0.726722,0.321769 -1.659114,0.458329 -2.693106,0.457906 -2.256014,7.05e-4 -4.986161,-0.644913 -7.144456,-1.293284 -1.079853,-0.32385 -2.017536,-0.648088 -2.684639,-0.890764 -0.333728,-0.121673 -0.599722,-0.222708 -0.782108,-0.293511 -0.182386,-0.07055 -0.280106,-0.110384 -0.280459,-0.110384 -0.08573,-0.03528 -0.18415,0.0025 -0.224719,0.0853 -0.04092,0.08322 -0.01058,0.183832 0.0695,0.230399 0,0 0.02293,0.01309 0.06738,0.03983 0.333022,0.199672 1.85173,1.137708 3.278717,2.437059 0.713316,0.649464 1.40335,1.389204 1.910644,2.165985 0.508,0.777487 0.830439,1.588876 0.829734,2.382626 0,0.147885 -0.01094,0.295346 -0.03387,0.442489 l 0.174272,0.02716 -0.04374,-0.170744 c -0.18662,0.04755 -0.371123,0.07013 -0.554214,0.07013 -0.776817,0.0011 -1.547989,-0.410245 -2.268361,-1.05544 -1.079853,-0.965306 -2.025298,-2.438154 -2.693106,-3.666526 -0.334434,-0.614468 -0.600428,-1.168047 -0.782461,-1.567392 -0.09102,-0.199531 -0.16122,-0.36075 -0.208492,-0.471558 -0.04727,-0.111195 -0.07091,-0.170462 -0.07126,-0.170744 -0.03316,-0.08364 -0.124178,-0.128447 -0.210961,-0.104458 -0.08643,0.02427 -0.141111,0.109714 -0.126648,0.198579 0,4.23e-4 0.0314,0.191946 0.07867,0.533012 0.142169,1.023055 0.426508,3.375378 0.426156,5.782804 0,0.972644 -0.04621,1.954072 -0.166159,2.858488 l 0.174625,0.02342 0.141111,-0.105833 c -0.410633,-0.545853 -0.91828,-0.77791 -0.932744,-0.785354 -0.0628,-0.02893 -0.136525,-0.01834 -0.189089,0.02674 -0.05221,0.04519 -0.07338,0.116452 -0.05398,0.182844 l 0.611011,2.090209 0.169333,-0.04946 -0.171097,-0.04339 0.171097,0.04339"
       style="fill:#000000;fill-opacity:1;fill-rule:nonzero;stroke:none;stroke-width:0.0352778"
       id="path3048" />
    <path
       d="m -60.154684,77.803707 c 1.515181,-2.623503 -3.520017,-9.740795 -3.520017,-9.740795 0,0 3.147484,2.483485 5.604228,3.502978 l 0.171097,-0.492795 c 0,0 0.214489,0.348932 0.415926,0.711905 0.694266,0.225849 1.298927,0.291712 1.709208,0.08999 -0.743656,-1.757151 -5.110339,-3.729955 -7.637992,-3.966986 1.074914,-0.161925 7.005814,-0.891435 8.643761,-3.64737 -0.488244,-0.06562 -1.243188,0.04135 -2.112433,0.25714 -0.560917,0.433528 -1.446036,1.059003 -1.446036,1.059003 l 0.716139,-0.860707 c -2.234848,0.65719 -4.902906,1.856352 -5.833887,2.6924 -0.191558,-3.351812 -1.366308,-6.899981 -2.83598,-6.954273 -1.161698,1.256241 2.181577,7.043561 2.181577,7.043561 0,0 -4.591403,-3.162723 -8.507942,-2.28353 0.138289,0.138888 0.264584,0.296686 0.337609,0.506835 -0.392642,-0.0032 -0.791634,-0.10294 -1.169812,-0.251072 -0.51435,0.20313 -1.009297,0.489621 -1.472141,0.878347 1.765653,3.397991 10.894836,1.60087 10.894836,1.60087 0,0 -4.108097,1.928989 -4.575528,4.151913 2.221795,-0.74609 3.274484,-2.469057 4.713112,-3.917915 0.07549,2.927244 0.928511,8.364008 3.724275,9.620497"
       style="fill:#ffffff;fill-opacity:1;fill-rule:nonzero;stroke:none;stroke-width:0.0352778"
       id="path3050" />
    <path
       d="m -60.154684,77.803707 0.152753,0.08819 c 0.218369,-0.37839 0.307975,-0.830404 0.307975,-1.322071 -7.06e-4,-0.817738 -0.245181,-1.756198 -0.60572,-2.711873 -1.083027,-2.863533 -3.227564,-5.890684 -3.231092,-5.897034 l -0.143933,0.101988 -0.109361,0.138219 c 0.0071,0.0038 3.151364,2.490258 5.645856,3.527778 0.0448,0.01873 0.0956,0.01806 0.1397,-0.0018 0.0441,-0.01997 0.07867,-0.05747 0.09454,-0.103363 l 0.171098,-0.49276 -0.166512,-0.05789 -0.150283,0.09246 c 0,0 0.05292,0.08572 0.130881,0.217593 0.07832,0.131622 0.18168,0.308398 0.280811,0.487539 0.02152,0.03888 0.0575,0.06851 0.09984,0.08227 0.420511,0.136172 0.813858,0.218722 1.166989,0.21911 0.246239,0 0.474839,-0.04064 0.674864,-0.138606 0.08396,-0.04135 0.121003,-0.140829 0.08467,-0.22726 -0.207081,-0.484787 -0.639234,-0.950701 -1.205089,-1.397741 -1.700742,-1.333782 -4.63409,-2.489835 -6.578954,-2.676137 l -0.01658,0.175684 0.02611,0.174625 c 0.534459,-0.08079 2.297995,-0.304836 4.135262,-0.856615 0.919691,-0.276155 1.859492,-0.634577 2.679347,-1.102431 0.819503,-0.468101 1.522236,-1.046339 1.954742,-1.772709 0.02999,-0.05069 0.03281,-0.113947 0.0071,-0.166722 -0.02575,-0.05334 -0.0769,-0.09042 -0.135113,-0.09814 -0.106187,-0.01446 -0.220839,-0.02078 -0.343606,-0.02078 -0.496358,2.47e-4 -1.129242,0.106081 -1.83515,0.281517 l -0.06526,0.03129 c -0.277636,0.214983 -0.638175,0.479143 -0.928864,0.689011 -0.290689,0.209867 -0.510469,0.365195 -0.511175,0.365442 l 0.101953,0.144286 0.135466,0.112995 0.716492,-0.860848 c 0.04939,-0.05951 0.05433,-0.144569 0.01164,-0.209445 -0.04269,-0.06505 -0.122414,-0.09468 -0.197203,-0.07235 -1.126772,0.331117 -2.358672,0.797595 -3.429706,1.287639 -1.071739,0.491666 -1.977672,1.000019 -2.472267,1.442508 l 0.117828,0.131198 0.176036,-0.0099 c -0.09701,-1.69291 -0.440266,-3.431046 -0.95003,-4.766769 -0.255411,-0.66809 -0.551392,-1.23571 -0.889,-1.650894 -0.336198,-0.412433 -0.724606,-0.685165 -1.166636,-0.702804 -0.05151,-0.0021 -0.100895,0.01834 -0.13582,0.05651 -0.216958,0.236996 -0.291394,0.56829 -0.2921,0.941882 7.06e-4,0.539361 0.158045,1.192424 0.388408,1.880587 0.691798,2.059235 2.059517,4.423517 2.061987,4.428879 l 0.152752,-0.08819 0.09984,-0.145379 c -0.0056,-0.0038 -0.89782,-0.618032 -2.235201,-1.233594 -1.33738,-0.615315 -3.120319,-1.234475 -4.918075,-1.235145 -0.499886,0 -1.000831,0.04794 -1.492956,0.15875 -0.06279,0.01376 -0.112888,0.06103 -0.13088,0.122766 -0.01799,0.06135 -7.06e-4,0.128023 0.04445,0.173496 0.129469,0.130246 0.23495,0.265007 0.29598,0.440302 l 0.166512,-0.05789 0.0014,-0.176388 c -0.363361,-0.0028 -0.742598,-0.09617 -1.107017,-0.238796 -0.04127,-0.01626 -0.08784,-0.01626 -0.129117,0 -0.53093,0.209868 -1.043164,0.506272 -1.520825,0.907698 -0.06315,0.05292 -0.08079,0.14291 -0.04304,0.216217 0.462845,0.887589 1.376539,1.425575 2.461684,1.744874 1.087614,0.319546 2.361494,0.425521 3.593394,0.425803 2.605265,-2.82e-4 5.024262,-0.47692 5.030612,-0.478049 l -0.03422,-0.173214 -0.07514,-0.15942 c -0.0053,0.0025 -1.039284,0.487962 -2.138539,1.2573 -0.549981,0.385304 -1.116189,0.841445 -1.580092,1.348705 -0.462844,0.507259 -0.826911,1.066729 -0.954264,1.668921 -0.01305,0.06174 0.0081,0.126365 0.05539,0.168275 0.04692,0.04163 0.113595,0.05539 0.173214,0.03542 1.142647,-0.383505 1.986492,-1.02101 2.717447,-1.736761 0.731309,-0.716139 1.354667,-1.509642 2.064456,-2.224264 l -0.124883,-0.124177 -0.176389,0.0041 c 0.03845,1.478245 0.271286,3.579742 0.849489,5.484037 0.28963,0.952112 0.665692,1.855258 1.152525,2.606569 0.48648,0.75117 1.086556,1.353644 1.826331,1.686737 0.08255,0.03704 0.179916,0.0056 0.225072,-0.07278 l -0.152753,-0.08819 0.07232,-0.160796 c -0.65793,-0.295346 -1.21285,-0.843104 -1.674989,-1.556773 -1.39065,-2.138186 -1.8923,-5.733345 -1.945569,-7.90762 -0.0018,-0.07084 -0.04516,-0.133245 -0.111125,-0.159421 -0.06562,-0.02607 -0.140406,-0.01062 -0.190147,0.03955 -0.728486,0.734483 -1.351139,1.526857 -2.060928,2.220701 -0.710495,0.694654 -1.503892,1.291484 -2.583039,1.654457 l 0.05609,0.167323 0.172862,0.03637 c 0.105833,-0.509447 0.430741,-1.024573 0.869597,-1.503998 0.656872,-0.719596 1.561747,-1.355019 2.300464,-1.806187 0.369358,-0.22546 0.697442,-0.405694 0.932392,-0.529166 0.117475,-0.06174 0.211666,-0.109009 0.276577,-0.141112 0.06456,-0.0321 0.09842,-0.04794 0.09842,-0.04794 0.08079,-0.03778 0.12065,-0.130246 0.09278,-0.214454 -0.02752,-0.08474 -0.1143,-0.135572 -0.201789,-0.118216 -3.53e-4,0 -0.147461,0.02893 -0.412044,0.07331 -0.793751,0.132291 -2.627842,0.398392 -4.550129,0.397968 -1.211086,4.24e-4 -2.45745,-0.106256 -3.493911,-0.411339 -1.038578,-0.305505 -1.852789,-0.805744 -2.2479,-1.569155 l -0.156633,0.08114 0.113594,0.135184 c 0.448028,-0.376449 0.925689,-0.652639 1.423459,-0.849559 l -0.06491,-0.163972 -0.06421,0.164395 c 0.392289,0.153388 0.811036,0.259609 1.232958,0.263066 0.05715,4.24e-4 0.111125,-0.02713 0.144639,-0.07373 0.03316,-0.04614 0.04198,-0.106504 0.02328,-0.160408 -0.08502,-0.244863 -0.23248,-0.425803 -0.379236,-0.573264 l -0.125236,0.124178 0.03881,0.17212 c 0.46355,-0.104034 0.938389,-0.149931 1.415697,-0.149931 1.716264,-0.0011 3.460398,0.598629 4.770614,1.20262 0.655461,0.301625 1.20262,0.603567 1.585031,0.829698 0.191206,0.112854 0.341489,0.207116 0.443442,0.272732 0.0508,0.03277 0.0896,0.05814 0.115711,0.07578 l 0.03845,0.02579 c 0.06809,0.04699 0.159102,0.04022 0.21978,-0.01587 0.06068,-0.05567 0.07444,-0.14605 0.03316,-0.217593 -3.53e-4,-3.88e-4 -0.03739,-0.06421 -0.103011,-0.182422 -0.230717,-0.41275 -0.809272,-1.476445 -1.328208,-2.652606 -0.519995,-1.172987 -0.975078,-2.471103 -0.971903,-3.298049 -7.06e-4,-0.328789 0.07126,-0.56762 0.198261,-0.702381 l -0.129469,-0.119909 -0.0063,0.176389 c 0.292805,0.0091 0.602191,0.200377 0.905933,0.573264 0.454025,0.555625 0.865364,1.489674 1.172633,2.593199 0.308328,1.103524 0.51682,2.377404 0.587728,3.621617 0.0039,0.0678 0.04586,0.12707 0.109008,0.152823 0.0628,0.02607 0.134409,0.01365 0.184856,-0.03182 0.436033,-0.3937 1.329972,-0.90304 2.38372,-1.384229 1.054452,-0.4826 2.274358,-0.944386 3.38208,-1.27 l -0.04974,-0.169369 -0.135467,-0.112854 -0.716139,0.860708 c -0.0568,0.0678 -0.05398,0.167569 0.006,0.23248 0.05997,0.06491 0.159103,0.07553 0.23107,0.02438 0.0011,-6.7e-4 0.886178,-0.625898 1.452033,-1.063695 l -0.107597,-0.139312 0.04233,0.171132 c 0.688975,-0.171415 1.303514,-0.271603 1.750131,-0.270898 0.110067,0 0.20955,0.0059 0.296333,0.01764 l 0.02364,-0.175013 -0.151694,-0.08999 c -0.386292,0.651263 -1.039283,1.197646 -1.826331,1.646485 -1.179336,0.674123 -2.653241,1.125714 -3.929944,1.420601 -1.278114,0.29531 -2.35585,0.434657 -2.762251,0.49597 -0.08784,0.01309 -0.1524,0.09038 -0.14993,0.179282 0.0025,0.08886 0.07126,0.162207 0.159808,0.170744 1.229784,0.11423 2.943578,0.661459 4.426303,1.395942 0.741892,0.366854 1.426987,0.780662 1.967442,1.206077 0.540808,0.424709 0.93345,0.864305 1.09855,1.258005 l 0.162278,-0.06876 -0.07761,-0.158362 c -0.137231,0.06766 -0.311503,0.102658 -0.519289,0.102658 -0.297392,2.83e-4 -0.660047,-0.07232 -1.057981,-0.201859 l -0.05433,0.167569 0.154163,-0.0853 c -0.203552,-0.367665 -0.4191,-0.71755 -0.419805,-0.719067 -0.03563,-0.05775 -0.101953,-0.09028 -0.169334,-0.08283 -0.06773,0.0074 -0.125236,0.0532 -0.147461,0.117405 l -0.17145,0.492936 0.166864,0.05775 0.06738,-0.162631 c -1.207206,-0.500909 -2.602795,-1.371811 -3.691467,-2.116913 -0.544336,-0.372639 -1.012825,-0.713423 -1.344436,-0.961073 -0.166159,-0.123719 -0.298098,-0.224331 -0.388056,-0.293511 -0.09031,-0.06946 -0.138289,-0.107491 -0.138642,-0.107491 -0.06879,-0.05443 -0.166863,-0.04974 -0.230363,0.01048 -0.06385,0.06036 -0.07338,0.15808 -0.02258,0.229729 0,4.23e-4 0.05821,0.08255 0.161572,0.234527 0.361597,0.532341 1.268589,1.910644 2.082447,3.49183 0.81527,1.57868 1.531056,3.369416 1.527881,4.678997 0,0.449651 -0.08255,0.838095 -0.260703,1.145682 l 0.152753,0.08819 0.07232,-0.160796 -0.07232,0.160796"
       style="fill:#000000;fill-opacity:1;fill-rule:nonzero;stroke:none;stroke-width:0.0352778"
       id="path3052" />
  </g>
</svg>
