<?xml version="1.0" encoding="UTF-8" standalone="no"?>
<!-- Created with Inkscape (http://www.inkscape.org/) -->

<svg
   width="78.360413mm"
   height="52.876839mm"
   viewBox="0 0 78.360413 52.876839"
   version="1.1"
   id="svg3527"
   sodipodi:docname="sofa_2_bw.svg"
   inkscape:version="1.1.2 (0a00cf5339, 2022-02-04)"
   xmlns:inkscape="http://www.inkscape.org/namespaces/inkscape"
   xmlns:sodipodi="http://sodipodi.sourceforge.net/DTD/sodipodi-0.dtd"
   xmlns="http://www.w3.org/2000/svg"
   xmlns:svg="http://www.w3.org/2000/svg">
  <sodipodi:namedview
     id="namedview3529"
     pagecolor="#505050"
     bordercolor="#eeeeee"
     borderopacity="1"
     inkscape:pageshadow="0"
     inkscape:pageopacity="0"
     inkscape:pagecheckerboard="0"
     inkscape:document-units="mm"
     showgrid="false"
     inkscape:zoom="0.64052329"
     inkscape:cx="41.372422"
     inkscape:cy="-308.34164"
     inkscape:window-width="952"
     inkscape:window-height="1136"
     inkscape:window-x="960"
     inkscape:window-y="32"
     inkscape:window-maximized="0"
     inkscape:current-layer="layer1" />
  <defs
     id="defs3524" />
  <g
     inkscape:label="Layer 1"
     inkscape:groupmode="layer"
     id="layer1"
     transform="translate(-2.9533147,-114.00664)">
    <path
       d="m 59.906116,139.72936 h 16.827853 c 2.383014,0 4.315178,1.93188 4.315178,4.31518 v 20.48729 H 55.590938 v -20.48729 c 0,-2.3833 1.932164,-4.31518 4.315178,-4.31518"
       style="fill:#ffffff;fill-opacity:1;fill-rule:nonzero;stroke:none;stroke-width:0.0352778"
       id="path2394" />
    <path
       d="m 59.906116,139.72936 v 0.26459 h 16.827853 c 1.119364,0 2.130426,0.45296 2.864203,1.18649 0.733425,0.73368 1.186392,1.74474 1.186392,2.8641 v 20.22271 H 55.855521 v -20.22271 c 0,-1.11936 0.452967,-2.13042 1.186392,-2.8641 0.733777,-0.73353 1.744839,-1.18649 2.864203,-1.18649 v -0.26459 -0.26451 c -2.529417,0 -4.579762,2.05031 -4.579762,4.57969 v 20.75187 h 25.987377 v -20.75187 c 0,-2.52938 -2.050345,-4.57969 -4.579762,-4.57969 H 59.906116 v 0.26451"
       style="fill:#000000;fill-opacity:1;fill-rule:nonzero;stroke:none;stroke-width:0.0352778"
       id="path2396" />
    <path
       d="m 34.423211,139.72936 h 16.827501 c 2.383367,0 4.315531,1.93188 4.315531,4.31518 v 20.48729 H 30.10768 v -20.48729 c 0,-2.3833 1.932164,-4.31518 4.315531,-4.31518"
       style="fill:#ffffff;fill-opacity:1;fill-rule:nonzero;stroke:none;stroke-width:0.0352778"
       id="path2398" />
    <path
       d="m 34.423211,139.72936 v 0.26459 h 16.827501 c 1.119364,0 2.130425,0.45296 2.864556,1.18649 0.733425,0.73368 1.186039,1.74474 1.186392,2.8641 v 20.22271 H 30.372264 v -20.22271 c 3.52e-4,-1.11936 0.452966,-2.13042 1.186391,-2.8641 0.733778,-0.73353 1.744839,-1.18649 2.864556,-1.18649 v -0.26459 -0.26451 c -2.529769,0 -4.579761,2.05031 -4.580114,4.57969 v 20.75187 h 25.987729 v -20.75187 c -3.52e-4,-2.52938 -2.050344,-4.57969 -4.580114,-4.57969 H 34.423211 v 0.26451"
       style="fill:#000000;fill-opacity:1;fill-rule:nonzero;stroke:none;stroke-width:0.0352778"
       id="path2400" />
    <path
       d="m 59.906116,157.58556 h 16.827853 c 2.383014,0 4.315178,1.93231 4.315178,4.31518 v 2.63109 H 55.590938 v -2.63109 c 0,-2.38287 1.932164,-4.31518 4.315178,-4.31518"
       style="fill:#ffffff;fill-opacity:1;fill-rule:nonzero;stroke:none;stroke-width:0.0352778"
       id="path2402" />
    <path
       d="m 59.906116,157.58556 v 0.26459 h 16.827853 c 1.119364,0 2.130426,0.45296 2.864203,1.18649 0.733425,0.73368 1.186392,1.74488 1.186392,2.8641 v 2.36651 H 55.855521 v -2.36651 c 0,-1.11922 0.452967,-2.13042 1.186392,-2.8641 0.733777,-0.73353 1.744839,-1.18649 2.864203,-1.18649 v -0.26459 -0.26458 c -2.529417,0 -4.579762,2.05038 -4.579762,4.57976 v 2.89567 h 25.987377 v -2.89567 c 0,-2.52938 -2.050345,-4.57976 -4.579762,-4.57976 H 59.906116 v 0.26458"
       style="fill:#000000;fill-opacity:1;fill-rule:nonzero;stroke:none;stroke-width:0.0352778"
       id="path2404" />
    <path
       d="m 34.423211,157.58556 h 16.827501 c 2.383367,0 4.315531,1.93231 4.315531,4.31518 v 2.63109 H 30.10768 v -2.63109 c 0,-2.38287 1.932164,-4.31518 4.315531,-4.31518"
       style="fill:#ffffff;fill-opacity:1;fill-rule:nonzero;stroke:none;stroke-width:0.0352778"
       id="path2406" />
    <path
       d="m 34.423211,157.58556 v 0.26459 h 16.827501 c 1.119364,0 2.130425,0.45296 2.864556,1.18649 0.733425,0.73368 1.186039,1.74488 1.186392,2.8641 v 2.36651 H 30.372264 v -2.36651 c 3.52e-4,-1.11922 0.452966,-2.13042 1.186391,-2.8641 0.733778,-0.73353 1.744839,-1.18649 2.864556,-1.18649 v -0.26459 -0.26458 c -2.529769,0 -4.579761,2.05038 -4.580114,4.57976 v 2.89567 h 25.987729 v -2.89567 c -3.52e-4,-2.52938 -2.050344,-4.57976 -4.580114,-4.57976 H 34.423211 v 0.26458"
       style="fill:#000000;fill-opacity:1;fill-rule:nonzero;stroke:none;stroke-width:0.0352778"
       id="path2408" />
    <path
       d="M 5.3049316,166.6189 H 81.049147 v -2.08707 H 5.3049316 V 114.27122 H 3.2178981 v 52.34768 h 2.0870335"
       style="fill:#ffffff;fill-opacity:1;fill-rule:nonzero;stroke:none;stroke-width:0.0352778"
       id="path2410" />
    <path
       d="m 5.3049316,166.6189 v 0.26458 H 81.313731 v -2.61623 H 5.5695149 V 114.00664 H 2.9533147 v 52.87684 h 2.3516169 v -0.26458 -0.26459 H 3.4824814 v -51.8185 h 1.5578668 v 50.2606 H 80.784564 v 1.5579 H 5.3049316 v 0.26459"
       style="fill:#000000;fill-opacity:1;fill-rule:nonzero;stroke:none;stroke-width:0.0352778"
       id="path2412" />
    <path
       d="m 30.10768,144.01353 v 20.54338 H 5.3049316 V 139.75416 H 25.848241 c 2.352323,0 4.259439,1.90666 4.259439,4.25937"
       style="fill:#ffffff;fill-opacity:1;fill-rule:nonzero;stroke:none;stroke-width:0.0352778"
       id="path2414" />
    <path
       d="m 30.10768,144.01353 h -0.264583 v 20.2788 H 5.5695149 V 140.01875 H 25.848241 c 1.103842,0 2.101145,0.44661 2.824692,1.17009 0.723547,0.72362 1.170164,1.72088 1.170164,2.82469 h 0.264583 0.264584 c 0,-2.49865 -2.025298,-4.52363 -4.524023,-4.52399 H 5.0403482 v 25.33195 H 30.372264 V 144.01353 H 30.10768"
       style="fill:#000000;fill-opacity:1;fill-rule:nonzero;stroke:none;stroke-width:0.0352778"
       id="path2416" />
    <path
       d="m 30.10768,118.5864 v 16.8275 c 0,2.38337 -1.931811,4.31546 -4.315178,4.31546 H 5.3049316 V 114.27122 H 25.792502 c 2.383367,0 4.315178,1.93181 4.315178,4.31518"
       style="fill:#ffffff;fill-opacity:1;fill-rule:nonzero;stroke:none;stroke-width:0.0352778"
       id="path2418" />
    <path
       d="m 30.10768,118.5864 h -0.264583 v 16.8275 c 0,1.11972 -0.452967,2.13043 -1.186392,2.86456 -0.733778,0.73342 -1.744839,1.18604 -2.864203,1.18639 H 5.5695149 V 114.53581 H 25.792502 c 1.119364,0 2.130425,0.45296 2.864203,1.18639 0.733425,0.73378 1.186392,1.74484 1.186392,2.8642 h 0.264583 0.264584 c 0,-2.52942 -2.050345,-4.57976 -4.579762,-4.57976 H 5.0403482 v 25.98731 H 25.792502 c 2.529417,-2.9e-4 4.579762,-2.05028 4.579762,-4.58005 V 118.5864 H 30.10768"
       style="fill:#000000;fill-opacity:1;fill-rule:nonzero;stroke:none;stroke-width:0.0352778"
       id="path2420" />
    <path
       d="m 12.251479,118.5864 v 16.8275 c 0,2.38337 -1.932164,4.31546 -4.3151778,4.31546 H 5.3049316 v -25.45814 h 2.6313696 c 2.3830138,0 4.3151778,1.93181 4.3151778,4.31518"
       style="fill:#ffffff;fill-opacity:1;fill-rule:nonzero;stroke:none;stroke-width:0.0352778"
       id="path2422" />
    <path
       d="m 12.251479,118.5864 h -0.264583 v 16.8275 c -3.53e-4,1.11972 -0.452967,2.13043 -1.186392,2.86456 -0.733778,0.73342 -1.7448389,1.18604 -2.8642028,1.18639 H 5.5695149 v -24.92904 h 2.3667863 c 1.1193639,0 2.1304248,0.45296 2.8642028,1.18639 0.733425,0.73378 1.186039,1.74484 1.186392,2.8642 h 0.264583 0.264584 c -3.53e-4,-2.52942 -2.050345,-4.57976 -4.5797618,-4.57976 h -2.895953 v 25.98731 h 2.895953 c 2.5294168,-2.9e-4 4.5794088,-2.05028 4.5797618,-4.58005 v -16.8275 h -0.264584"
       style="fill:#000000;fill-opacity:1;fill-rule:nonzero;stroke:none;stroke-width:0.0352778"
       id="path2424" />
    <path
       d="m 30.10768,164.53183 v -2.63109 c 0,-2.38287 -1.932164,-4.31518 -4.31553,-4.31518 H 12.251479 v -13.51594 c 0,-2.38329 -1.932164,-4.31546 -4.3151778,-4.31546 H 5.3049316 v 24.77767 H 30.10768"
       style="fill:#ffffff;fill-opacity:1;fill-rule:nonzero;stroke:none;stroke-width:0.0352778"
       id="path2426" />
    <path
       d="m 30.10768,164.53183 h 0.264584 v -2.63109 c 0,-2.52938 -2.050345,-4.57976 -4.580114,-4.57976 H 12.516063 v -13.25136 c -3.53e-4,-2.5298 -2.050345,-4.57972 -4.5797618,-4.58008 h -2.895953 v 25.30687 H 30.372264 v -0.26458 H 30.10768 v -0.26458 H 5.5695149 v -24.2485 h 2.3667863 c 1.1193639,0 2.1304248,0.45296 2.8642028,1.18635 0.733425,0.73382 1.186039,1.74488 1.186392,2.86452 v 13.78053 H 25.79215 c 1.119363,0 2.130425,0.45296 2.864555,1.18649 0.733425,0.73368 1.186392,1.74488 1.186392,2.8641 v 2.63109 h 0.264583 v -0.26458 0.26458"
       style="fill:#000000;fill-opacity:1;fill-rule:nonzero;stroke:none;stroke-width:0.0352778"
       id="path2428" />
  </g>
</svg>
