<?xml version="1.0" encoding="UTF-8" standalone="no"?>
<!-- Created with Inkscape (http://www.inkscape.org/) -->

<svg
   width="148.91809mm"
   height="100.02168mm"
   viewBox="0 0 148.91809 100.02168"
   version="1.1"
   id="svg3527"
   sodipodi:docname="sofa_2.svg"
   inkscape:version="1.1.2 (0a00cf5339, 2022-02-04)"
   xmlns:inkscape="http://www.inkscape.org/namespaces/inkscape"
   xmlns:sodipodi="http://sodipodi.sourceforge.net/DTD/sodipodi-0.dtd"
   xmlns="http://www.w3.org/2000/svg"
   xmlns:svg="http://www.w3.org/2000/svg">
  <sodipodi:namedview
     id="namedview3529"
     pagecolor="#505050"
     bordercolor="#eeeeee"
     borderopacity="1"
     inkscape:pageshadow="0"
     inkscape:pageopacity="0"
     inkscape:pagecheckerboard="0"
     inkscape:document-units="mm"
     showgrid="false"
     inkscape:zoom="0.64052329"
     inkscape:cx="347.37223"
     inkscape:cy="408.25994"
     inkscape:window-width="952"
     inkscape:window-height="1136"
     inkscape:window-x="960"
     inkscape:window-y="32"
     inkscape:window-maximized="0"
     inkscape:current-layer="layer1" />
  <defs
     id="defs3524" />
  <g
     inkscape:label="Layer 1"
     inkscape:groupmode="layer"
     id="layer1"
     transform="translate(24.064053,126.84255)">
    <path
       d="m 27.321562,-118.56144 v 32.157104 c 0,4.554361 -3.693584,8.246534 -8.247945,8.246534 h -39.14775 v -48.650178 h 39.14775 c 4.554361,0 8.247945,3.69182 8.247945,8.24654"
       style="fill:#93b8cf;fill-opacity:1;fill-rule:nonzero;stroke:none;stroke-width:0.0352778"
       id="path1582" />
    <path
       d="m 27.321562,-118.56144 v 32.157104 c 0,4.554361 -3.693584,8.246534 -8.247945,8.246534 h -39.14775 v -48.650178 h 39.14775 c 4.554361,0 8.247945,3.69182 8.247945,8.24654"
       style="fill:#f8dba7;fill-opacity:1;fill-rule:nonzero;stroke:none;stroke-width:0.0352778"
       id="path1584" />
    <path
       d="m 27.321562,-70.01816 v 39.256759 h -47.395695 v -47.396401 h 39.257111 c 4.494389,0 8.138584,3.644194 8.138584,8.139642"
       style="fill:#f8dba7;fill-opacity:1;fill-rule:nonzero;stroke:none;stroke-width:0.0352778"
       id="path1586" />
    <path
       d="m 84.228148,-78.205074 h 32.155702 c 4.55436,0 8.24794,3.692172 8.24794,8.246533 v 39.15128 H 75.980204 v -39.15128 c 0,-4.554361 3.693583,-8.246533 8.247944,-8.246533"
       style="fill:#f8dba7;fill-opacity:1;fill-rule:nonzero;stroke:none;stroke-width:0.0352778"
       id="path1588" />
    <path
       d="m 35.565979,-78.205074 h 32.159224 c 4.554361,0 8.247945,3.692172 8.247945,8.246533 v 39.15128 H 27.321562 v -39.15128 c 0,-4.554361 3.690055,-8.246533 8.244417,-8.246533"
       style="fill:#f8dba7;fill-opacity:1;fill-rule:nonzero;stroke:none;stroke-width:0.0352778"
       id="path1590" />
    <path
       d="M 119.44948,-36.388201 H 81.254232 v -33.631017 c 0,-1.632656 1.340555,-2.961217 2.988028,-2.961217 h 32.21567 c 1.651,0 2.99155,1.328561 2.99155,2.961217 z m -2.99155,-41.81511 H 84.24226 c -4.561417,0 -8.262056,3.664303 -8.262056,8.18374 v 38.85248 h 48.739776 v -38.85248 c 0,-4.519437 -3.69711,-8.18374 -8.26205,-8.18374"
       style="fill:#d7b380;fill-opacity:1;fill-rule:nonzero;stroke:none;stroke-width:0.0352778"
       id="path1592" />
    <path
       d="M 70.716759,-36.388201 H 32.585006 v -33.631017 c 0,-1.632656 1.340556,-2.961217 2.984501,-2.961217 h 32.162752 c 1.647472,0 2.9845,1.328561 2.9845,2.961217 z m -2.9845,-41.81511 H 35.569507 c -4.554362,0 -8.247945,3.664303 -8.247945,8.18374 v 38.85248 h 48.658642 v -38.85248 c 0,-4.519437 -3.690056,-8.18374 -8.247945,-8.18374"
       style="fill:#d7b380;fill-opacity:1;fill-rule:nonzero;stroke:none;stroke-width:0.0352778"
       id="path1594" />
    <path
       d="m 22.058117,-36.388201 h -38.1247 v -33.631017 c 0,-1.632656 1.34056,-2.961217 2.9845,-2.961217 h 32.1557 c 1.647472,0 2.9845,1.328561 2.9845,2.961217 z m -2.9845,-41.81511 h -32.1557 c -4.55436,0 -8.24794,3.664303 -8.24794,8.18374 v 38.85248 h 48.651585 v -38.85248 c 0,-4.519437 -3.693584,-8.18374 -8.247945,-8.18374"
       style="fill:#d7b380;fill-opacity:1;fill-rule:nonzero;stroke:none;stroke-width:0.0352778"
       id="path1596" />
    <path
       d="m -14.814223,-83.455114 v -38.124346 h 33.88784 c 1.647472,0 2.9845,1.33844 2.9845,2.9838 v 32.157104 c 0,1.645003 -1.337028,2.983442 -2.9845,2.983442 z m 42.135785,-2.983442 v -32.157464 c 0,-4.55436 -3.693584,-8.24653 -8.247945,-8.24653 h -39.14775 v 48.650528 h 39.14775 c 4.554361,0 8.247945,-3.692172 8.247945,-8.246534"
       style="fill:#d7b380;fill-opacity:1;fill-rule:nonzero;stroke:none;stroke-width:0.0352778"
       id="path1598" />
    <path
       d="m 84.228148,-44.082291 h 32.155702 c 4.55436,0 8.24794,3.69359 8.24794,8.24795 v 5.02708 H 75.980204 v -5.02708 c 0,-4.55436 3.693583,-8.24795 8.247944,-8.24795"
       style="fill:#f5efe1;fill-opacity:1;fill-rule:nonzero;stroke:none;stroke-width:0.0352778"
       id="path1600" />
    <path
       d="m 35.565979,-44.082291 h 32.159224 c 4.554361,0 8.247945,3.69359 8.247945,8.24795 v 5.02708 H 27.321562 v -5.02708 c 0,-4.55436 3.690055,-8.24795 8.244417,-8.24795"
       style="fill:#f5efe1;fill-opacity:1;fill-rule:nonzero;stroke:none;stroke-width:0.0352778"
       id="path1602" />
    <path
       d="M -20.074133,-26.820871 H 124.85404 v -3.98639 H -20.074133 v -96.001069 h -3.98992 v 99.987459 h 3.98992"
       style="fill:#f8dba7;fill-opacity:1;fill-rule:nonzero;stroke:none;stroke-width:0.0352778"
       id="path1604" />
    <path
       d="m -6.802633,-118.56144 v 32.157104 c 0,4.554361 -3.69006,8.246534 -8.24442,8.246534 h -5.02708 v -48.650178 h 5.02708 c 4.55436,0 8.24442,3.69182 8.24442,8.24654"
       style="fill:#f5efe1;fill-opacity:1;fill-rule:nonzero;stroke:none;stroke-width:0.0352778"
       id="path1606" />
    <path
       d="m 27.321562,-30.807261 v -5.02708 c 0,-4.55436 -3.693584,-8.24795 -8.247945,-8.24795 h -25.87625 v -25.828977 c 0,-4.554362 -3.69006,-8.246534 -8.24442,-8.246534 h -5.02708 v 47.350541 h 47.395695"
       style="fill:#f5efe1;fill-opacity:1;fill-rule:nonzero;stroke:none;stroke-width:0.0352778"
       id="path1608" />
    <path
       d="m 113.45579,-60.625804 c 0,-0.813506 -0.6597,-1.4732 -1.47461,-1.4732 -0.81139,0 -1.47109,0.659694 -1.47109,1.4732 0,0.813506 0.6597,1.4732 1.47109,1.4732 0.81491,0 1.47461,-0.659694 1.47461,-1.4732"
       style="fill:#f5efe1;fill-opacity:1;fill-rule:nonzero;stroke:none;stroke-width:0.0352778"
       id="path1610" />
    <path
       d="m 90.059566,-60.625804 c 0,-0.813506 -0.659695,-1.4732 -1.474612,-1.4732 -0.814916,0 -1.474611,0.659694 -1.474611,1.4732 0,0.813506 0.659695,1.4732 1.474611,1.4732 0.814917,0 1.474612,-0.659694 1.474612,-1.4732"
       style="fill:#f5efe1;fill-opacity:1;fill-rule:nonzero;stroke:none;stroke-width:0.0352778"
       id="path1612" />
    <path
       d="m 64.850064,-60.625804 c 0,-0.813506 -0.656167,-1.4732 -1.471083,-1.4732 -0.814917,0 -1.474612,0.659694 -1.474612,1.4732 0,0.813506 0.659695,1.4732 1.474612,1.4732 0.814916,0 1.471083,-0.659694 1.471083,-1.4732"
       style="fill:#f5efe1;fill-opacity:1;fill-rule:nonzero;stroke:none;stroke-width:0.0352778"
       id="path1614" />
    <path
       d="m 41.45384,-60.625804 c 0,-0.813506 -0.659694,-1.4732 -1.471083,-1.4732 -0.814917,0 -1.474611,0.659694 -1.474611,1.4732 0,0.813506 0.659694,1.4732 1.474611,1.4732 0.811389,0 1.471083,-0.659694 1.471083,-1.4732"
       style="fill:#f5efe1;fill-opacity:1;fill-rule:nonzero;stroke:none;stroke-width:0.0352778"
       id="path1616" />
    <path
       d="m 10.254172,-114.77896 c -0.811389,0 -1.471084,0.65969 -1.471084,1.4732 0,0.81386 0.659695,1.4732 1.471084,1.4732 0.814916,0 1.474611,-0.65934 1.474611,-1.4732 0,-0.81351 -0.659695,-1.4732 -1.474611,-1.4732"
       style="fill:#f5efe1;fill-opacity:1;fill-rule:nonzero;stroke:none;stroke-width:0.0352778"
       id="path1618" />
    <path
       d="m 10.254172,-91.381325 c -0.811389,0 -1.471084,0.659694 -1.471084,1.4732 0,0.813858 0.659695,1.4732 1.471084,1.4732 0.814916,0 1.474611,-0.659342 1.474611,-1.4732 0,-0.813506 -0.659695,-1.4732 -1.474611,-1.4732"
       style="fill:#f5efe1;fill-opacity:1;fill-rule:nonzero;stroke:none;stroke-width:0.0352778"
       id="path1620" />
    <path
       d="m 11.728783,-60.625804 c 0,-0.813506 -0.659695,-1.4732 -1.474611,-1.4732 -0.811389,0 -1.471084,0.659694 -1.471084,1.4732 0,0.813506 0.659695,1.4732 1.471084,1.4732 0.814916,0 1.474611,-0.659694 1.474611,-1.4732"
       style="fill:#f5efe1;fill-opacity:1;fill-rule:nonzero;stroke:none;stroke-width:0.0352778"
       id="path1622" />
  </g>
</svg>
